<svg width="184" height="39" viewBox="0 0 184 39" fill="none" xmlns="http://www.w3.org/2000/svg">
<rect width="184" height="39" fill="white"/>
<path d="M0.756 28C0.972 27.1 1.26 26.101 1.62 25.003C1.998 23.887 2.421 22.726 2.889 21.52C3.375 20.314 3.87 19.117 4.374 17.929C4.878 16.741 5.364 15.607 5.832 14.527C6.3 13.429 6.84 12.322 7.452 11.206C7.578 10.99 7.686 10.792 7.776 10.612C7.884 10.432 8.001 10.279 8.127 10.153C7.425 10.171 6.669 10.261 5.859 10.423C5.067 10.567 4.302 10.774 3.564 11.044C2.844 11.314 2.223 11.629 1.701 11.989C1.197 12.349 0.873 12.745 0.729 13.177C0.711 13.231 0.675 13.258 0.621 13.258C0.459 13.258 0.378 13.132 0.378 12.88C0.378 12.826 0.396 12.745 0.432 12.637C0.594 12.169 0.792 11.755 1.026 11.395C1.278 11.035 1.53 10.729 1.782 10.477C2.376 9.865 3.042 9.496 3.78 9.37C4.518 9.226 5.301 9.154 6.129 9.154H12.96C14.202 9.154 15.192 9.343 15.93 9.721C16.686 10.099 17.226 10.603 17.55 11.233C17.874 11.845 18 12.502 17.928 13.204C17.802 14.626 17.298 15.805 16.416 16.741C15.552 17.659 14.535 18.343 13.365 18.793C12.555 19.099 11.637 19.351 10.611 19.549C9.585 19.729 8.586 19.819 7.614 19.819C7.398 19.819 7.182 19.819 6.966 19.819C6.768 19.801 6.57 19.783 6.372 19.765C6.138 20.341 5.886 20.989 5.616 21.709C5.364 22.411 5.121 23.122 4.887 23.842C4.671 24.562 4.491 25.237 4.347 25.867C4.203 26.479 4.131 26.992 4.131 27.406C4.131 27.676 4.167 27.874 4.239 28H0.756ZM6.534 19.333C7.362 19.351 8.226 19.279 9.126 19.117C10.026 18.937 10.89 18.649 11.718 18.253C12.546 17.839 13.248 17.308 13.824 16.66C14.238 16.192 14.562 15.661 14.796 15.067C15.03 14.455 15.147 13.861 15.147 13.285C15.147 12.547 14.958 11.881 14.58 11.287C14.202 10.693 13.599 10.306 12.771 10.126C12.555 10.072 12.339 10.036 12.123 10.018C11.907 10 11.673 9.982 11.421 9.964C11.025 10.45 10.62 11.044 10.206 11.746C9.792 12.448 9.387 13.186 8.991 13.96C8.613 14.716 8.253 15.454 7.911 16.174C7.587 16.876 7.317 17.488 7.101 18.01L6.534 19.333ZM22.152 28.162C21.594 28.162 21.207 27.946 20.991 27.514C20.793 27.082 20.694 26.551 20.694 25.921C20.694 25.345 20.748 24.778 20.856 24.22C20.91 23.968 20.964 23.716 21.018 23.464C21.09 23.194 21.171 22.915 21.261 22.627C20.955 23.185 20.631 23.725 20.289 24.247C19.965 24.769 19.632 25.228 19.29 25.624C18.714 26.326 18.102 26.911 17.454 27.379C16.824 27.847 16.194 28.081 15.564 28.081C15.06 28.081 14.628 27.901 14.268 27.541C13.926 27.163 13.755 26.515 13.755 25.597C13.755 24.661 13.917 23.698 14.241 22.708C14.565 21.718 15.015 20.8 15.591 19.954C16.185 19.09 16.878 18.397 17.67 17.875C18.48 17.353 19.362 17.092 20.316 17.092C20.622 17.092 20.955 17.137 21.315 17.227C21.675 17.317 22.008 17.488 22.314 17.74C22.62 17.974 22.827 18.307 22.935 18.739C22.953 18.703 22.971 18.676 22.989 18.658C23.025 18.64 23.052 18.622 23.07 18.604C23.322 18.208 23.61 17.875 23.934 17.605C24.258 17.335 24.618 17.2 25.014 17.2C25.212 17.2 25.491 17.209 25.851 17.227C26.211 17.245 26.472 17.245 26.634 17.227C26.544 17.299 26.418 17.443 26.256 17.659C26.112 17.875 25.977 18.1 25.851 18.334C25.725 18.55 25.626 18.721 25.554 18.847C25.068 19.783 24.627 20.71 24.231 21.628C23.835 22.546 23.529 23.428 23.313 24.274C23.259 24.454 23.223 24.625 23.205 24.787C23.187 24.931 23.178 25.075 23.178 25.219C23.178 25.687 23.331 25.921 23.637 25.921C23.925 25.921 24.285 25.741 24.717 25.381C25.347 24.877 25.896 24.247 26.364 23.491C26.85 22.735 27.273 22.006 27.633 21.304C27.705 21.178 27.768 21.115 27.822 21.115C27.93 21.115 27.984 21.268 27.984 21.574C27.984 21.718 27.957 21.88 27.903 22.06C27.867 22.24 27.804 22.411 27.714 22.573C27.462 23.005 27.129 23.536 26.715 24.166C26.319 24.796 25.869 25.417 25.365 26.029C24.861 26.623 24.33 27.127 23.772 27.541C23.232 27.955 22.692 28.162 22.152 28.162ZM16.779 25.813C16.833 25.831 16.914 25.84 17.022 25.84C17.364 25.84 17.733 25.696 18.129 25.408C18.525 25.12 18.921 24.751 19.317 24.301C19.713 23.833 20.064 23.365 20.37 22.897C21.162 21.637 21.747 20.692 22.125 20.062C22.503 19.432 22.719 19.072 22.773 18.982C22.683 18.676 22.521 18.451 22.287 18.307C22.071 18.163 21.81 18.091 21.504 18.091C21.108 18.091 20.685 18.199 20.235 18.415C19.803 18.631 19.434 18.892 19.128 19.198C18.66 19.666 18.21 20.269 17.778 21.007C17.364 21.745 17.022 22.474 16.752 23.194C16.5 23.914 16.374 24.517 16.374 25.003C16.374 25.453 16.509 25.723 16.779 25.813ZM27.5697 33.427C27.1197 33.427 26.6427 33.355 26.1387 33.211C25.6527 33.085 25.2477 32.86 24.9237 32.536C24.5817 32.212 24.4107 31.78 24.4107 31.24C24.4107 30.862 24.5277 30.511 24.7617 30.187C24.9957 29.863 25.3197 29.701 25.7337 29.701C25.9857 29.701 26.2197 29.764 26.4357 29.89C26.6517 30.034 26.7957 30.205 26.8677 30.403C26.8317 30.421 26.7777 30.475 26.7057 30.565C26.6337 30.655 26.5887 30.718 26.5707 30.754C26.4447 31.006 26.3817 31.267 26.3817 31.537C26.3817 31.879 26.4987 32.149 26.7327 32.347C26.9847 32.563 27.2997 32.671 27.6777 32.671C28.1637 32.671 28.6677 32.491 29.1897 32.131C29.7657 31.717 30.2157 31.177 30.5397 30.511C30.8817 29.863 31.1517 29.278 31.3497 28.756L32.8887 24.652C32.5647 25.048 32.2227 25.453 31.8627 25.867C31.5207 26.263 31.3047 26.506 31.2147 26.596C30.5307 27.28 29.9187 27.712 29.3787 27.892C28.8387 28.072 28.3617 28.162 27.9477 28.162C27.5157 28.162 27.1467 27.973 26.8407 27.595C26.5527 27.217 26.4087 26.668 26.4087 25.948C26.4087 25.588 26.4627 25.129 26.5707 24.571C26.6787 24.013 26.8317 23.419 27.0297 22.789C27.2277 22.141 27.4527 21.511 27.7047 20.899C27.9747 20.269 28.2627 19.711 28.5687 19.225C29.0367 18.487 29.5587 18.01 30.1347 17.794C30.7107 17.578 31.4397 17.47 32.3217 17.47C32.3937 17.47 32.4297 17.506 32.4297 17.578C32.4297 17.65 32.3757 17.74 32.2677 17.848C32.0157 18.064 31.7097 18.442 31.3497 18.982C30.9897 19.522 30.6387 20.116 30.2967 20.764C29.9727 21.412 29.7027 22.033 29.4867 22.627C29.3427 23.041 29.1987 23.527 29.0547 24.085C28.9287 24.643 28.8657 25.129 28.8657 25.543C28.8657 25.831 28.9017 26.065 28.9737 26.245C29.0637 26.407 29.1987 26.488 29.3787 26.488C29.6667 26.488 30.0627 26.272 30.5667 25.84C31.3227 25.21 32.0067 24.436 32.6187 23.518C33.2307 22.6 33.7527 21.646 34.1847 20.656C34.4367 20.08 34.6437 19.594 34.8057 19.198C34.9677 18.784 35.1477 18.451 35.3457 18.199C35.5437 17.947 35.8227 17.767 36.1827 17.659C36.5427 17.533 37.0287 17.47 37.6407 17.47H38.7477C38.4057 17.686 38.0637 18.091 37.7217 18.685C37.3797 19.261 37.0557 19.945 36.7497 20.737C36.5157 21.313 36.2727 21.943 36.0207 22.627C35.7867 23.311 35.5437 24.004 35.2917 24.706C35.0757 25.354 34.8417 26.065 34.5897 26.839C34.3377 27.595 34.0497 28.333 33.7257 29.053C33.4017 29.791 33.0237 30.43 32.5917 30.97C31.9797 31.726 31.2327 32.32 30.3507 32.752C29.4687 33.202 28.5417 33.427 27.5697 33.427ZM39.5795 28.162C39.0755 28.162 38.6975 27.982 38.4455 27.622C38.1935 27.244 38.0675 26.74 38.0675 26.11C38.0675 26.02 38.0675 25.93 38.0675 25.84C38.0675 25.75 38.0765 25.66 38.0945 25.57C38.1845 24.886 38.3375 24.112 38.5535 23.248C38.7875 22.384 39.0575 21.475 39.3635 20.521C39.5435 19.981 39.7685 19.306 40.0385 18.496C40.3265 17.668 40.6595 16.786 41.0375 15.85C41.4155 14.896 41.8295 13.951 42.2795 13.015C42.7475 12.079 43.2605 11.233 43.8185 10.477C44.3765 9.703 44.9615 9.082 45.5735 8.614C46.2035 8.146 46.8695 7.912 47.5715 7.912C48.1475 7.912 48.5435 8.056 48.7595 8.344C48.9755 8.614 49.0835 8.938 49.0835 9.316C49.0835 9.712 49.0115 10.117 48.8675 10.531C48.7235 10.927 48.5795 11.26 48.4355 11.53C48.1115 12.178 47.6885 12.907 47.1665 13.717C46.6445 14.527 46.0955 15.283 45.5195 15.985C45.1775 16.435 44.7545 16.939 44.2505 17.497C43.7465 18.055 43.2695 18.568 42.8195 19.036C42.3875 19.504 42.0725 19.828 41.8745 20.008L41.4425 21.25C41.3165 21.592 41.1905 21.997 41.0645 22.465C40.9565 22.933 40.8575 23.401 40.7675 23.869C40.6955 24.319 40.6325 24.715 40.5785 25.057C40.5605 25.129 40.5515 25.201 40.5515 25.273C40.5515 25.345 40.5515 25.408 40.5515 25.462C40.5515 26.002 40.7585 26.272 41.1725 26.272C41.4245 26.272 41.7395 26.155 42.1175 25.921C42.4775 25.705 42.8195 25.426 43.1435 25.084C43.4855 24.724 43.7285 24.454 43.8725 24.274C44.2325 23.806 44.5745 23.311 44.8985 22.789C45.2225 22.249 45.5015 21.754 45.7355 21.304C45.8255 21.16 45.8885 21.088 45.9245 21.088C46.0325 21.088 46.0865 21.241 46.0865 21.547C46.0865 21.691 46.0595 21.862 46.0055 22.06C45.9695 22.24 45.9065 22.411 45.8165 22.573C45.5645 23.005 45.2675 23.482 44.9255 24.004C44.5835 24.526 44.2325 25.03 43.8725 25.516C43.6025 25.876 43.2245 26.263 42.7385 26.677C42.2525 27.091 41.7305 27.442 41.1725 27.73C40.6145 28.018 40.0835 28.162 39.5795 28.162ZM42.4145 18.469C43.3145 17.407 44.2235 16.273 45.1415 15.067C46.0775 13.843 46.8515 12.601 47.4635 11.341C47.4995 11.251 47.5805 11.071 47.7065 10.801C47.8325 10.531 47.9495 10.234 48.0575 9.91C48.1655 9.568 48.2195 9.28 48.2195 9.046C48.2195 8.74 48.1025 8.587 47.8685 8.587H47.6795C47.4455 8.587 47.1665 8.749 46.8425 9.073C46.5365 9.397 46.2215 9.829 45.8975 10.369C45.4835 11.053 45.0785 11.845 44.6825 12.745C44.2865 13.627 43.8995 14.563 43.5215 15.553C43.1435 16.543 42.7745 17.515 42.4145 18.469ZM47.8974 28.216C47.0694 28.216 46.3494 27.955 45.7374 27.433C45.1434 26.911 44.8464 26.074 44.8464 24.922C44.8464 24.076 44.9994 23.194 45.3054 22.276C45.6114 21.358 46.0434 20.503 46.6014 19.711C47.1774 18.919 47.8704 18.271 48.6804 17.767C49.4904 17.263 50.3994 17.011 51.4074 17.011C52.2354 17.011 52.8744 17.173 53.3244 17.497C53.7924 17.803 54.1254 18.217 54.3234 18.739C54.5214 19.261 54.6204 19.819 54.6204 20.413C54.6204 20.863 54.5664 21.322 54.4584 21.79C54.3684 22.24 54.2334 22.69 54.0534 23.14C54.3594 23.5 54.7464 23.68 55.2144 23.68C55.7184 23.68 56.1864 23.491 56.6184 23.113C56.8704 22.897 57.0954 22.627 57.2934 22.303C57.5094 21.961 57.6984 21.646 57.8604 21.358C57.9144 21.25 57.9774 21.196 58.0494 21.196C58.1394 21.196 58.1844 21.322 58.1844 21.574C58.1844 21.736 58.1574 21.925 58.1034 22.141C58.0674 22.357 57.9774 22.573 57.8334 22.789C57.5634 23.257 57.2844 23.617 56.9964 23.869C56.7084 24.103 56.3844 24.292 56.0244 24.436C55.7544 24.544 55.4664 24.598 55.1604 24.598C54.6024 24.598 54.0984 24.427 53.6484 24.085C53.5044 24.391 53.3244 24.706 53.1084 25.03C52.5864 25.912 51.9114 26.668 51.0834 27.298C50.2554 27.91 49.1934 28.216 47.8974 28.216ZM48.9234 27.19C49.3374 27.19 49.7334 27.055 50.1114 26.785C50.5074 26.497 50.8674 26.146 51.1914 25.732C51.5154 25.318 51.7944 24.886 52.0284 24.436C52.2804 23.986 52.4874 23.59 52.6494 23.248C52.0374 22.726 51.7314 22.069 51.7314 21.277C51.7314 20.755 51.8754 20.35 52.1634 20.062C52.4514 19.774 52.8474 19.648 53.3514 19.684C53.3334 19.27 53.2254 18.928 53.0274 18.658C52.8294 18.388 52.5054 18.253 52.0554 18.253C51.6414 18.253 51.2454 18.379 50.8674 18.631C50.5074 18.883 50.1654 19.207 49.8414 19.603C49.5354 19.981 49.2564 20.377 49.0044 20.791C48.7704 21.187 48.5724 21.547 48.4104 21.871C48.1764 22.339 47.9604 22.906 47.7624 23.572C47.5644 24.238 47.4654 24.859 47.4654 25.435C47.4654 25.939 47.5644 26.362 47.7624 26.704C47.9784 27.028 48.3654 27.19 48.9234 27.19ZM64.1286 28.162C63.5706 28.162 63.1836 27.946 62.9676 27.514C62.7696 27.082 62.6706 26.551 62.6706 25.921C62.6706 25.345 62.7246 24.778 62.8326 24.22C62.8866 23.968 62.9406 23.716 62.9946 23.464C63.0666 23.194 63.1476 22.915 63.2376 22.627C62.9316 23.185 62.6076 23.725 62.2656 24.247C61.9416 24.769 61.6086 25.228 61.2666 25.624C60.6906 26.326 60.0786 26.911 59.4306 27.379C58.8006 27.847 58.1706 28.081 57.5406 28.081C57.0366 28.081 56.6046 27.901 56.2446 27.541C55.9026 27.163 55.7316 26.515 55.7316 25.597C55.7316 24.661 55.8936 23.698 56.2176 22.708C56.5416 21.718 56.9916 20.8 57.5676 19.954C58.1616 19.09 58.8546 18.397 59.6466 17.875C60.4566 17.353 61.3386 17.092 62.2926 17.092C62.5986 17.092 62.9316 17.137 63.2916 17.227C63.6516 17.317 63.9846 17.488 64.2906 17.74C64.5966 17.974 64.8036 18.307 64.9116 18.739C64.9296 18.703 64.9476 18.676 64.9656 18.658C65.0016 18.64 65.0286 18.622 65.0466 18.604C65.2986 18.208 65.5866 17.875 65.9106 17.605C66.2346 17.335 66.5946 17.2 66.9906 17.2C67.1886 17.2 67.4676 17.209 67.8276 17.227C68.1876 17.245 68.4486 17.245 68.6106 17.227C68.5206 17.299 68.3946 17.443 68.2326 17.659C68.0886 17.875 67.9536 18.1 67.8276 18.334C67.7016 18.55 67.6026 18.721 67.5306 18.847C67.0446 19.783 66.6036 20.71 66.2076 21.628C65.8116 22.546 65.5056 23.428 65.2896 24.274C65.2356 24.454 65.1996 24.625 65.1816 24.787C65.1636 24.931 65.1546 25.075 65.1546 25.219C65.1546 25.687 65.3076 25.921 65.6136 25.921C65.9016 25.921 66.2616 25.741 66.6936 25.381C67.3236 24.877 67.8726 24.247 68.3406 23.491C68.8266 22.735 69.2496 22.006 69.6096 21.304C69.6816 21.178 69.7446 21.115 69.7986 21.115C69.9066 21.115 69.9606 21.268 69.9606 21.574C69.9606 21.718 69.9336 21.88 69.8796 22.06C69.8436 22.24 69.7806 22.411 69.6906 22.573C69.4386 23.005 69.1056 23.536 68.6916 24.166C68.2956 24.796 67.8456 25.417 67.3416 26.029C66.8376 26.623 66.3066 27.127 65.7486 27.541C65.2086 27.955 64.6686 28.162 64.1286 28.162ZM58.7556 25.813C58.8096 25.831 58.8906 25.84 58.9986 25.84C59.3406 25.84 59.7096 25.696 60.1056 25.408C60.5016 25.12 60.8976 24.751 61.2936 24.301C61.6896 23.833 62.0406 23.365 62.3466 22.897C63.1386 21.637 63.7236 20.692 64.1016 20.062C64.4796 19.432 64.6956 19.072 64.7496 18.982C64.6596 18.676 64.4976 18.451 64.2636 18.307C64.0476 18.163 63.7866 18.091 63.4806 18.091C63.0846 18.091 62.6616 18.199 62.2116 18.415C61.7796 18.631 61.4106 18.892 61.1046 19.198C60.6366 19.666 60.1866 20.269 59.7546 21.007C59.3406 21.745 58.9986 22.474 58.7286 23.194C58.4766 23.914 58.3506 24.517 58.3506 25.003C58.3506 25.453 58.4856 25.723 58.7556 25.813ZM76.9713 28.162C76.4313 28.162 76.0533 27.964 75.8373 27.568C75.6393 27.154 75.5403 26.641 75.5403 26.029C75.5403 25.741 75.5583 25.453 75.5943 25.165C75.6303 24.859 75.6753 24.553 75.7293 24.247C75.7653 23.977 75.8373 23.653 75.9453 23.275C76.0533 22.879 76.1793 22.456 76.3233 22.006C75.9813 22.69 75.5853 23.392 75.1353 24.112C74.6853 24.814 74.1903 25.471 73.6503 26.083C73.1283 26.677 72.5793 27.163 72.0033 27.541C71.4453 27.901 70.8783 28.081 70.3023 28.081C69.7983 28.081 69.3663 27.901 69.0063 27.541C68.6643 27.163 68.4933 26.515 68.4933 25.597C68.4933 24.661 68.6553 23.698 68.9793 22.708C69.3033 21.718 69.7533 20.8 70.3293 19.954C70.9233 19.09 71.6163 18.397 72.4083 17.875C73.2183 17.353 74.1003 17.092 75.0543 17.092C75.4503 17.092 75.8913 17.173 76.3773 17.335C76.8633 17.497 77.2323 17.812 77.4843 18.28C77.5743 18.136 77.6463 17.992 77.7003 17.848C77.7543 17.704 77.8083 17.578 77.8623 17.47C78.2943 16.516 78.6633 15.616 78.9693 14.77C79.2753 13.924 79.5453 13.267 79.7793 12.799C80.0853 12.187 80.3283 11.728 80.5083 11.422C80.6883 11.098 80.8503 10.873 80.9943 10.747C81.1563 10.621 81.3363 10.531 81.5343 10.477C81.6963 10.441 81.8763 10.414 82.0743 10.396C82.2723 10.378 82.4793 10.369 82.6953 10.369C82.9113 10.369 83.1543 10.369 83.4243 10.369C83.7123 10.369 83.8923 10.36 83.9643 10.342C83.6583 10.558 83.2983 10.999 82.8843 11.665C82.4703 12.331 82.0383 13.132 81.5883 14.068C81.1383 15.004 80.6973 16.003 80.2653 17.065C79.8513 18.109 79.4643 19.153 79.1043 20.197C78.7623 21.223 78.4833 22.159 78.2673 23.005C78.0693 23.851 77.9703 24.535 77.9703 25.057C77.9703 25.633 78.1323 25.921 78.4563 25.921C78.6723 25.921 78.9243 25.813 79.2123 25.597C79.5183 25.381 79.7973 25.138 80.0493 24.868C80.3013 24.598 80.4813 24.4 80.5893 24.274C80.9493 23.806 81.2913 23.311 81.6153 22.789C81.9393 22.249 82.2183 21.745 82.4523 21.277C82.5423 21.133 82.6053 21.061 82.6413 21.061C82.7673 21.061 82.8303 21.223 82.8303 21.547C82.8303 21.889 82.7403 22.213 82.5603 22.519C82.3083 22.951 82.0023 23.437 81.6423 23.977C81.3003 24.499 80.9493 25.012 80.5893 25.516C80.3373 25.84 80.0043 26.209 79.5903 26.623C79.1943 27.037 78.7623 27.397 78.2943 27.703C77.8443 28.009 77.4033 28.162 76.9713 28.162ZM71.5173 25.813C71.5713 25.831 71.6523 25.84 71.7603 25.84C72.2643 25.84 72.8493 25.507 73.5153 24.841C74.1993 24.157 74.8833 23.266 75.5673 22.168C75.7113 21.952 75.8823 21.646 76.0803 21.25C76.2783 20.854 76.4853 20.422 76.7013 19.954C76.9353 19.468 77.1513 19.018 77.3493 18.604C77.2233 18.424 77.0613 18.298 76.8633 18.226C76.6833 18.154 76.4853 18.118 76.2693 18.118C75.8733 18.118 75.4503 18.226 75.0003 18.442C74.5503 18.64 74.1723 18.892 73.8663 19.198C73.3983 19.666 72.9483 20.269 72.5163 21.007C72.1023 21.745 71.7603 22.474 71.4903 23.194C71.2383 23.914 71.1123 24.517 71.1123 25.003C71.1123 25.453 71.2473 25.723 71.5173 25.813ZM84.0299 28C84.4259 26.992 84.8759 25.876 85.3799 24.652C85.9019 23.41 86.4419 22.141 86.9999 20.845C87.5579 19.549 88.1069 18.289 88.6469 17.065C89.2049 15.841 89.7089 14.725 90.1589 13.717C90.6269 12.691 91.0139 11.845 91.3199 11.179C91.6259 10.513 91.8239 10.099 91.9139 9.937C91.1219 9.919 90.3119 10 89.4839 10.18C88.6559 10.342 87.8819 10.576 87.1619 10.882C86.4419 11.188 85.8299 11.539 85.3259 11.935C84.8399 12.331 84.5249 12.745 84.3809 13.177C84.3629 13.231 84.3269 13.258 84.2729 13.258C84.1289 13.258 84.0569 13.141 84.0569 12.907C84.0569 12.871 84.0569 12.835 84.0569 12.799C84.0749 12.745 84.0929 12.691 84.1109 12.637C84.2729 12.169 84.4709 11.755 84.7049 11.395C84.9569 11.035 85.1999 10.729 85.4339 10.477C86.0279 9.865 86.6939 9.496 87.4319 9.37C88.1699 9.226 88.9529 9.154 89.7809 9.154H94.3439C94.3079 9.226 94.2359 9.37 94.1279 9.586C94.0199 9.802 93.9659 10.162 93.9659 10.666C93.9659 11.188 94.0649 11.899 94.2629 12.799C94.4789 13.699 94.8929 14.86 95.5049 16.282C95.7389 16.84 95.9549 17.362 96.1529 17.848C96.3509 18.316 96.5219 18.757 96.6659 19.171C96.9359 19.891 97.1339 20.467 97.2599 20.899C97.3859 21.313 97.4669 21.637 97.5029 21.871C97.5569 22.105 97.5839 22.312 97.5839 22.492C97.6019 22.654 97.6199 22.834 97.6379 23.032C97.8539 22.492 98.1509 21.781 98.5289 20.899C98.9069 20.017 99.3209 19.045 99.7709 17.983C100.239 16.921 100.716 15.841 101.202 14.743C101.688 13.645 102.147 12.61 102.579 11.638C103.011 10.666 103.371 9.838 103.659 9.154C103.713 9.064 103.902 9.019 104.226 9.019C104.55 9.019 104.919 9.046 105.333 9.1C105.747 9.154 106.026 9.181 106.17 9.181C105.666 9.523 105.126 10.18 104.55 11.152C103.992 12.124 103.38 13.294 102.714 14.662C102.156 15.814 101.598 17.029 101.04 18.307C100.5 19.567 100.005 20.8 99.5549 22.006C99.1229 23.194 98.7719 24.274 98.5019 25.246C98.2499 26.218 98.1239 26.974 98.1239 27.514C98.1239 27.604 98.1239 27.694 98.1239 27.784C98.1419 27.856 98.1599 27.928 98.1779 28H96.4769C96.4589 27.46 96.3959 26.956 96.2879 26.488C96.1799 26.02 96.0089 25.489 95.7749 24.895C95.5409 24.283 95.2169 23.527 94.8029 22.627C94.4069 21.709 93.9119 20.548 93.3179 19.144C92.7959 17.92 92.4089 16.849 92.1569 15.931C91.9229 15.013 91.7789 14.23 91.7249 13.582C91.4369 14.23 91.0949 15.004 90.6989 15.904C90.3209 16.786 89.9249 17.722 89.5109 18.712C89.0969 19.702 88.7009 20.692 88.3229 21.682C87.9449 22.672 87.6029 23.599 87.2969 24.463C87.0089 25.327 86.7929 26.074 86.6489 26.704C86.5049 27.316 86.4599 27.748 86.5139 28H84.0299ZM101.988 28.162C101.52 28.162 101.133 27.946 100.827 27.514C100.539 27.064 100.431 26.371 100.503 25.435C100.539 25.039 100.629 24.535 100.773 23.923C100.917 23.311 101.106 22.654 101.34 21.952C101.592 21.232 101.871 20.539 102.177 19.873C102.483 19.189 102.816 18.586 103.176 18.064C103.374 17.794 103.572 17.632 103.77 17.578C103.986 17.506 104.373 17.47 104.931 17.47H106.227C105.921 17.902 105.597 18.442 105.255 19.09C104.913 19.738 104.598 20.386 104.31 21.034C104.022 21.664 103.797 22.195 103.635 22.627C103.599 22.753 103.527 22.978 103.419 23.302C103.311 23.608 103.212 23.95 103.122 24.328C103.032 24.706 102.987 25.057 102.987 25.381C102.987 25.669 103.041 25.912 103.149 26.11C103.257 26.308 103.455 26.407 103.743 26.407C104.085 26.389 104.454 26.173 104.85 25.759C105.246 25.345 105.642 24.814 106.038 24.166C106.434 23.518 106.821 22.843 107.199 22.141C107.595 21.421 107.946 20.755 108.252 20.143C108.576 19.513 108.846 19.027 109.062 18.685C109.332 18.271 109.62 17.911 109.926 17.605C110.232 17.281 110.583 17.119 110.979 17.119C111.123 17.119 111.312 17.128 111.546 17.146C111.798 17.146 112.041 17.146 112.275 17.146C112.527 17.146 112.698 17.137 112.788 17.119C112.68 17.191 112.554 17.335 112.41 17.551C112.266 17.767 112.122 17.992 111.978 18.226C111.852 18.442 111.753 18.622 111.681 18.766C111.213 19.702 110.754 20.647 110.304 21.601C109.872 22.537 109.548 23.428 109.332 24.274C109.242 24.598 109.197 24.877 109.197 25.111C109.197 25.651 109.377 25.921 109.737 25.921C109.989 25.921 110.349 25.741 110.817 25.381C111.177 25.093 111.528 24.724 111.87 24.274C112.248 23.806 112.599 23.302 112.923 22.762C113.247 22.222 113.526 21.727 113.76 21.277C113.832 21.151 113.895 21.088 113.949 21.088C114.057 21.088 114.111 21.232 114.111 21.52C114.111 21.664 114.084 21.835 114.03 22.033C113.994 22.213 113.922 22.393 113.814 22.573C113.562 23.005 113.265 23.482 112.923 24.004C112.581 24.508 112.23 25.012 111.87 25.516C111.618 25.84 111.285 26.209 110.871 26.623C110.457 27.037 110.016 27.397 109.548 27.703C109.098 28.009 108.657 28.162 108.225 28.162C107.973 28.162 107.739 28.108 107.523 28C107.307 27.91 107.127 27.721 106.983 27.433C106.803 27.055 106.713 26.542 106.713 25.894C106.713 25.696 106.722 25.489 106.74 25.273C106.758 25.039 106.785 24.805 106.821 24.571C106.551 24.949 106.263 25.3 105.957 25.624C105.669 25.948 105.372 26.272 105.066 26.596C104.382 27.28 103.797 27.712 103.311 27.892C102.843 28.072 102.402 28.162 101.988 28.162ZM119.895 28.243C119.103 28.243 118.464 27.928 117.978 27.298C117.51 26.65 117.105 25.723 116.763 24.517C116.205 25.111 115.647 25.687 115.089 26.245C114.531 26.803 114.009 27.388 113.523 28H111.525C111.831 27.73 112.425 27.181 113.307 26.353C114.189 25.525 115.215 24.535 116.385 23.383C116.205 22.861 116.016 22.285 115.818 21.655C115.62 21.007 115.449 20.377 115.305 19.765C115.143 20.089 114.936 20.503 114.684 21.007C114.45 21.511 114.108 22.123 113.658 22.843C113.604 22.933 113.559 22.906 113.523 22.762C113.487 22.618 113.469 22.447 113.469 22.249C113.469 21.961 113.505 21.745 113.577 21.601C114.027 20.755 114.342 20.062 114.522 19.522C114.72 18.982 114.909 18.433 115.089 17.875C115.233 17.443 115.53 17.227 115.98 17.227H117.384C117.474 17.767 117.618 18.415 117.816 19.171C118.014 19.909 118.23 20.656 118.464 21.412C118.95 20.926 119.49 20.332 120.084 19.63C120.696 18.91 121.326 18.19 121.974 17.47C122.082 17.344 122.271 17.272 122.541 17.254C122.829 17.218 123.108 17.209 123.378 17.227C123.666 17.227 123.864 17.227 123.972 17.227C123.036 18.055 122.145 18.892 121.299 19.738C120.453 20.584 119.58 21.475 118.68 22.411C118.806 22.771 118.959 23.212 119.139 23.734C119.319 24.238 119.517 24.715 119.733 25.165C119.949 25.615 120.174 25.948 120.408 26.164C120.624 26.362 120.876 26.461 121.164 26.461C121.524 26.461 121.884 26.326 122.244 26.056C122.604 25.786 122.937 25.48 123.243 25.138C123.549 24.796 123.792 24.508 123.972 24.274C124.332 23.806 124.674 23.311 124.998 22.789C125.34 22.249 125.637 21.727 125.889 21.223C125.961 21.097 126.024 21.034 126.078 21.034C126.168 21.034 126.213 21.169 126.213 21.439C126.213 21.601 126.186 21.781 126.132 21.979C126.096 22.177 126.024 22.375 125.916 22.573C125.61 23.095 125.295 23.599 124.971 24.085C124.665 24.571 124.332 25.039 123.972 25.489C123.684 25.849 123.306 26.245 122.838 26.677C122.388 27.109 121.902 27.478 121.38 27.784C120.876 28.09 120.381 28.243 119.895 28.243ZM127.084 28.162C126.562 28.162 126.166 27.955 125.896 27.541C125.77 27.343 125.68 27.109 125.626 26.839C125.572 26.569 125.545 26.29 125.545 26.002C125.545 25.714 125.563 25.426 125.599 25.138C125.635 24.832 125.68 24.535 125.734 24.247C125.824 23.779 125.923 23.356 126.031 22.978C126.157 22.582 126.283 22.204 126.409 21.844V21.817C126.265 22.087 126.085 22.384 125.869 22.708C125.653 23.014 125.5 23.239 125.41 23.383C125.284 23.581 125.185 23.68 125.113 23.68C125.041 23.68 125.005 23.599 125.005 23.437C125.005 23.077 125.113 22.681 125.329 22.249C125.473 21.961 125.671 21.592 125.923 21.142C126.175 20.674 126.436 20.17 126.706 19.63C126.976 19.09 127.21 18.568 127.408 18.064H125.599C125.509 18.064 125.491 17.992 125.545 17.848C125.599 17.704 125.68 17.569 125.788 17.443C125.896 17.299 125.977 17.227 126.031 17.227H128.083C128.281 16.759 128.506 16.255 128.758 15.715C129.028 15.175 129.325 14.671 129.649 14.203C129.991 13.717 130.36 13.321 130.756 13.015C131.152 12.709 131.575 12.556 132.025 12.556C132.223 12.556 132.466 12.556 132.754 12.556C133.06 12.556 133.249 12.547 133.321 12.529C132.943 12.781 132.502 13.285 131.998 14.041C131.494 14.779 130.945 15.841 130.351 17.227H133.078C133.132 17.227 133.114 17.299 133.024 17.443C132.934 17.569 132.817 17.704 132.673 17.848C132.547 17.992 132.421 18.064 132.295 18.064H129.973C129.739 18.658 129.478 19.306 129.19 20.008C128.92 20.71 128.668 21.403 128.434 22.087C128.218 22.753 128.056 23.365 127.948 23.923C127.876 24.265 127.84 24.58 127.84 24.868C127.84 25.552 128.056 25.894 128.488 25.894C128.776 25.894 129.118 25.75 129.514 25.462C129.91 25.174 130.306 24.778 130.702 24.274C131.062 23.806 131.404 23.302 131.728 22.762C132.07 22.222 132.358 21.727 132.592 21.277C132.664 21.151 132.727 21.088 132.781 21.088C132.889 21.088 132.943 21.232 132.943 21.52C132.943 21.664 132.916 21.835 132.862 22.033C132.826 22.213 132.754 22.393 132.646 22.573C132.394 23.005 132.097 23.482 131.755 24.004C131.413 24.508 131.062 25.012 130.702 25.516C130.45 25.84 130.117 26.209 129.703 26.623C129.307 27.037 128.875 27.397 128.407 27.703C127.957 28.009 127.516 28.162 127.084 28.162ZM139.013 28.54C138.113 28.54 137.276 28.459 136.502 28.297C135.728 28.135 135.08 27.865 134.558 27.487C134.198 27.217 133.919 26.875 133.721 26.461C133.541 26.047 133.451 25.624 133.451 25.192C133.451 24.652 133.604 24.148 133.91 23.68C134.216 23.212 134.702 22.897 135.368 22.735C135.458 22.717 135.539 22.708 135.611 22.708C135.701 22.69 135.782 22.681 135.854 22.681C136.214 22.681 136.529 22.762 136.799 22.924C137.087 23.086 137.285 23.275 137.393 23.491C137.321 23.545 137.222 23.644 137.096 23.788C136.97 23.914 136.889 24.022 136.853 24.112C136.583 24.562 136.448 25.012 136.448 25.462C136.448 26.074 136.682 26.578 137.15 26.974C137.636 27.352 138.266 27.541 139.04 27.541C139.742 27.541 140.399 27.37 141.011 27.028C141.641 26.668 142.145 26.191 142.523 25.597C142.919 25.003 143.117 24.319 143.117 23.545C143.117 22.969 142.982 22.357 142.712 21.709C142.478 21.151 142.154 20.656 141.74 20.224C141.344 19.792 140.966 19.387 140.606 19.009C140.12 18.487 139.652 17.983 139.202 17.497C138.77 16.993 138.41 16.453 138.122 15.877C137.852 15.283 137.717 14.617 137.717 13.879C137.717 13.177 137.861 12.493 138.149 11.827C138.455 11.161 138.887 10.594 139.445 10.126C140.075 9.586 140.795 9.208 141.605 8.992C142.415 8.776 143.261 8.668 144.143 8.668C145.241 8.668 146.105 8.812 146.735 9.1C147.383 9.37 147.842 9.721 148.112 10.153C148.4 10.585 148.544 11.044 148.544 11.53C148.544 11.998 148.436 12.448 148.22 12.88C148.022 13.312 147.743 13.681 147.383 13.987C147.023 14.275 146.627 14.455 146.195 14.527C146.123 14.545 146.051 14.554 145.979 14.554C145.907 14.554 145.826 14.554 145.736 14.554C145.34 14.554 144.989 14.464 144.683 14.284C144.395 14.104 144.251 13.798 144.251 13.366C144.251 13.312 144.251 13.249 144.251 13.177C144.269 13.105 144.287 13.033 144.305 12.961C144.629 12.961 144.962 12.844 145.304 12.61C145.646 12.376 145.871 12.115 145.979 11.827C146.069 11.593 146.114 11.377 146.114 11.179C146.114 10.693 145.889 10.315 145.439 10.045C145.007 9.757 144.494 9.613 143.9 9.613C143.198 9.613 142.568 9.766 142.01 10.072C141.47 10.36 141.047 10.747 140.741 11.233C140.435 11.701 140.282 12.214 140.282 12.772C140.282 13.33 140.453 13.87 140.795 14.392C141.083 14.806 141.443 15.238 141.875 15.688C142.307 16.12 142.748 16.543 143.198 16.957C143.648 17.353 144.035 17.722 144.359 18.064C145.097 18.784 145.628 19.522 145.952 20.278C146.276 21.016 146.438 21.745 146.438 22.465C146.438 23.293 146.24 24.076 145.844 24.814C145.466 25.534 144.935 26.173 144.251 26.731C143.567 27.289 142.775 27.73 141.875 28.054C140.975 28.378 140.021 28.54 139.013 28.54ZM154.334 28.162C153.722 28.162 153.299 27.982 153.065 27.622C152.849 27.244 152.741 26.812 152.741 26.326C152.741 25.804 152.822 25.201 152.984 24.517C153.164 23.815 153.38 23.095 153.632 22.357C153.902 21.601 154.172 20.899 154.442 20.251C154.532 20.035 154.613 19.801 154.685 19.549C154.775 19.297 154.82 19.072 154.82 18.874C154.82 18.514 154.658 18.334 154.334 18.334C154.208 18.334 154.064 18.361 153.902 18.415C153.74 18.451 153.551 18.532 153.335 18.658C152.957 18.838 152.597 19.09 152.255 19.414C151.913 19.72 151.679 19.954 151.553 20.116C151.319 20.404 151.094 20.728 150.878 21.088C150.662 21.43 150.473 21.781 150.311 22.141C149.951 22.915 149.663 23.653 149.447 24.355C149.249 25.039 149.06 25.624 148.88 26.11C148.772 26.416 148.664 26.731 148.556 27.055C148.448 27.379 148.349 27.694 148.259 28H145.64C145.64 28 145.703 27.775 145.829 27.325C145.955 26.875 146.108 26.425 146.288 25.975C147.116 23.833 147.899 21.646 148.637 19.414C149.375 17.182 150.266 15.04 151.31 12.988C151.778 12.07 152.282 11.224 152.822 10.45C153.38 9.676 153.965 9.064 154.577 8.614C155.207 8.146 155.864 7.912 156.548 7.912C157.088 7.912 157.457 8.038 157.655 8.29C157.871 8.524 157.979 8.821 157.979 9.181C157.979 9.577 157.898 9.991 157.736 10.423C157.574 10.855 157.412 11.224 157.25 11.53C156.926 12.178 156.503 12.907 155.981 13.717C155.459 14.527 154.91 15.283 154.334 15.985C154.208 16.147 153.992 16.408 153.686 16.768C153.38 17.11 153.065 17.461 152.741 17.821C152.435 18.181 152.192 18.46 152.012 18.658C152.606 18.226 153.119 17.893 153.551 17.659C153.983 17.425 154.352 17.263 154.658 17.173C155.18 17.029 155.612 16.957 155.954 16.957C156.98 16.957 157.493 17.407 157.493 18.307C157.493 18.685 157.385 19.135 157.169 19.657C157.061 19.945 156.908 20.332 156.71 20.818C156.512 21.304 156.305 21.826 156.089 22.384C155.891 22.924 155.72 23.446 155.576 23.95C155.45 24.454 155.387 24.868 155.387 25.192C155.387 25.39 155.414 25.57 155.468 25.732C155.54 25.876 155.666 25.948 155.846 25.948C155.972 25.948 156.152 25.885 156.386 25.759C156.89 25.471 157.358 25.066 157.79 24.544C158.24 24.022 158.636 23.464 158.978 22.87C159.338 22.276 159.644 21.736 159.896 21.25C159.95 21.124 160.013 21.061 160.085 21.061C160.175 21.061 160.22 21.214 160.22 21.52C160.22 21.664 160.202 21.835 160.166 22.033C160.13 22.213 160.058 22.393 159.95 22.573C159.698 23.005 159.365 23.536 158.951 24.166C158.555 24.796 158.105 25.417 157.601 26.029C157.097 26.623 156.566 27.127 156.008 27.541C155.45 27.955 154.892 28.162 154.334 28.162ZM151.229 18.469C152.129 17.407 153.038 16.273 153.956 15.067C154.892 13.843 155.666 12.601 156.278 11.341C156.314 11.251 156.395 11.071 156.521 10.801C156.647 10.531 156.764 10.234 156.872 9.91C156.98 9.568 157.034 9.28 157.034 9.046C157.034 8.74 156.917 8.587 156.683 8.587C156.449 8.587 156.17 8.749 155.846 9.073C155.54 9.397 155.225 9.829 154.901 10.369C154.487 11.053 154.064 11.845 153.632 12.745C153.2 13.627 152.777 14.563 152.363 15.553C151.967 16.543 151.589 17.515 151.229 18.469ZM162.015 28.216C161.187 28.216 160.467 27.955 159.855 27.433C159.261 26.911 158.964 26.074 158.964 24.922C158.964 24.076 159.117 23.194 159.423 22.276C159.729 21.358 160.161 20.503 160.719 19.711C161.295 18.919 161.988 18.271 162.798 17.767C163.608 17.263 164.517 17.011 165.525 17.011C166.353 17.011 166.992 17.173 167.442 17.497C167.91 17.803 168.243 18.217 168.441 18.739C168.639 19.261 168.738 19.819 168.738 20.413C168.738 20.863 168.684 21.322 168.576 21.79C168.486 22.24 168.351 22.69 168.171 23.14C168.477 23.5 168.864 23.68 169.332 23.68C169.836 23.68 170.304 23.491 170.736 23.113C170.988 22.897 171.213 22.627 171.411 22.303C171.627 21.961 171.816 21.646 171.978 21.358C172.032 21.25 172.095 21.196 172.167 21.196C172.257 21.196 172.302 21.322 172.302 21.574C172.302 21.736 172.275 21.925 172.221 22.141C172.185 22.357 172.095 22.573 171.951 22.789C171.681 23.257 171.402 23.617 171.114 23.869C170.826 24.103 170.502 24.292 170.142 24.436C169.872 24.544 169.584 24.598 169.278 24.598C168.72 24.598 168.216 24.427 167.766 24.085C167.622 24.391 167.442 24.706 167.226 25.03C166.704 25.912 166.029 26.668 165.201 27.298C164.373 27.91 163.311 28.216 162.015 28.216ZM163.041 27.19C163.455 27.19 163.851 27.055 164.229 26.785C164.625 26.497 164.985 26.146 165.309 25.732C165.633 25.318 165.912 24.886 166.146 24.436C166.398 23.986 166.605 23.59 166.767 23.248C166.155 22.726 165.849 22.069 165.849 21.277C165.849 20.755 165.993 20.35 166.281 20.062C166.569 19.774 166.965 19.648 167.469 19.684C167.451 19.27 167.343 18.928 167.145 18.658C166.947 18.388 166.623 18.253 166.173 18.253C165.759 18.253 165.363 18.379 164.985 18.631C164.625 18.883 164.283 19.207 163.959 19.603C163.653 19.981 163.374 20.377 163.122 20.791C162.888 21.187 162.69 21.547 162.528 21.871C162.294 22.339 162.078 22.906 161.88 23.572C161.682 24.238 161.583 24.859 161.583 25.435C161.583 25.939 161.682 26.362 161.88 26.704C162.096 27.028 162.483 27.19 163.041 27.19ZM166.853 34.696C166.943 34.57 167.06 34.345 167.204 34.021C167.348 33.715 167.501 33.382 167.663 33.022C167.825 32.662 167.96 32.356 168.068 32.104C168.374 31.348 168.725 30.421 169.121 29.323C169.517 28.243 169.922 27.109 170.336 25.921C170.75 24.733 171.146 23.599 171.524 22.519C171.902 21.439 172.235 20.548 172.523 19.846C172.793 19.198 173.027 18.685 173.225 18.307C173.423 17.911 173.702 17.632 174.062 17.47C174.44 17.29 175.007 17.2 175.763 17.2H176.573C176.321 17.38 175.988 17.794 175.574 18.442C175.178 19.072 174.8 19.738 174.44 20.44C174.566 20.278 174.683 20.125 174.791 19.981C174.899 19.819 175.016 19.675 175.142 19.549C175.718 18.847 176.33 18.262 176.978 17.794C177.626 17.326 178.256 17.092 178.868 17.092C179.372 17.092 179.795 17.281 180.137 17.659C180.497 18.037 180.677 18.676 180.677 19.576C180.677 20.404 180.515 21.241 180.191 22.087C179.885 22.915 179.471 23.707 178.949 24.463C178.427 25.201 177.851 25.858 177.221 26.434C177.095 26.56 176.951 26.686 176.789 26.812C176.645 26.92 176.492 27.028 176.33 27.136C176.906 27.19 177.473 27.055 178.031 26.731C178.607 26.407 179.129 26.011 179.597 25.543C180.083 25.075 180.479 24.652 180.785 24.274C181.145 23.806 181.505 23.266 181.865 22.654C182.243 22.042 182.549 21.502 182.783 21.034C182.855 20.908 182.918 20.845 182.972 20.845C183.116 20.845 183.188 21.007 183.188 21.331C183.188 21.619 183.098 21.916 182.918 22.222C182.774 22.492 182.576 22.834 182.324 23.248C182.072 23.662 181.847 24.022 181.649 24.328C180.821 25.534 179.858 26.524 178.76 27.298C177.662 28.072 176.339 28.459 174.791 28.459C174.665 28.459 174.53 28.459 174.386 28.459C174.26 28.459 174.125 28.45 173.981 28.432C173.549 28.396 173.144 28.288 172.766 28.108C172.388 27.946 172.136 27.631 172.01 27.163L170.498 31.888C170.3 32.518 170.12 33.04 169.958 33.454C169.778 33.868 169.562 34.174 169.31 34.372C169.04 34.588 168.653 34.696 168.149 34.696H166.853ZM173.36 27.298C173.666 27.298 174.017 27.145 174.413 26.839C174.809 26.515 175.196 26.119 175.574 25.651C175.97 25.165 176.303 24.697 176.573 24.247C176.987 23.527 177.338 22.789 177.626 22.033C177.914 21.277 178.058 20.656 178.058 20.17C178.058 19.63 177.842 19.36 177.41 19.36C177.032 19.36 176.618 19.54 176.168 19.9C175.844 20.152 175.475 20.521 175.061 21.007C174.665 21.493 174.269 22.042 173.873 22.654C173.495 23.248 173.18 23.86 172.928 24.49C172.694 25.102 172.577 25.66 172.577 26.164C172.577 26.254 172.577 26.344 172.577 26.434C172.595 26.506 172.613 26.587 172.631 26.677C172.721 27.091 172.964 27.298 173.36 27.298Z" fill="#1E1E1E"/>
</svg>
