<svg width="232" height="49" viewBox="0 0 232 49" fill="none" xmlns="http://www.w3.org/2000/svg">
<rect width="231.179" height="49" fill="white"/>
<path d="M0.952 35C1.224 33.8667 1.58667 32.6087 2.04 31.226C2.516 29.8207 3.04867 28.3587 3.638 26.84C4.25 25.3213 4.87333 23.814 5.508 22.318C6.14267 20.822 6.75467 19.394 7.344 18.034C7.93333 16.6513 8.61333 15.2573 9.384 13.852C9.54267 13.58 9.67867 13.3307 9.792 13.104C9.928 12.8773 10.0753 12.6847 10.234 12.526C9.35 12.5487 8.398 12.662 7.378 12.866C6.38067 13.0473 5.41733 13.308 4.488 13.648C3.58133 13.988 2.79933 14.3847 2.142 14.838C1.50733 15.2913 1.09933 15.79 0.918 16.334C0.895333 16.402 0.85 16.436 0.782 16.436C0.578 16.436 0.476 16.2773 0.476 15.96C0.476 15.892 0.498667 15.79 0.544 15.654C0.748 15.0647 0.997333 14.5433 1.292 14.09C1.60933 13.6367 1.92667 13.2513 2.244 12.934C2.992 12.1633 3.83067 11.6987 4.76 11.54C5.68933 11.3587 6.67533 11.268 7.718 11.268H16.32C17.884 11.268 19.1307 11.506 20.06 11.982C21.012 12.458 21.692 13.0927 22.1 13.886C22.508 14.6567 22.6667 15.484 22.576 16.368C22.4173 18.1587 21.7827 19.6433 20.672 20.822C19.584 21.978 18.3033 22.8393 16.83 23.406C15.81 23.7913 14.654 24.1087 13.362 24.358C12.07 24.5847 10.812 24.698 9.588 24.698C9.316 24.698 9.044 24.698 8.772 24.698C8.52267 24.6753 8.27333 24.6527 8.024 24.63C7.72933 25.3553 7.412 26.1713 7.072 27.078C6.75467 27.962 6.44867 28.8573 6.154 29.764C5.882 30.6707 5.65533 31.5207 5.474 32.314C5.29267 33.0847 5.202 33.7307 5.202 34.252C5.202 34.592 5.24733 34.8413 5.338 35H0.952ZM8.228 24.086C9.27067 24.1087 10.3587 24.018 11.492 23.814C12.6253 23.5873 13.7133 23.2247 14.756 22.726C15.7987 22.2047 16.6827 21.536 17.408 20.72C17.9293 20.1307 18.3373 19.462 18.632 18.714C18.9267 17.9433 19.074 17.1953 19.074 16.47C19.074 15.5407 18.836 14.702 18.36 13.954C17.884 13.206 17.1247 12.7187 16.082 12.492C15.81 12.424 15.538 12.3787 15.266 12.356C14.994 12.3333 14.6993 12.3107 14.382 12.288C13.8833 12.9 13.3733 13.648 12.852 14.532C12.3307 15.416 11.8207 16.3453 11.322 17.32C10.846 18.272 10.3927 19.2013 9.962 20.108C9.554 20.992 9.214 21.7627 8.942 22.42L8.228 24.086ZM27.8951 35.204C27.1925 35.204 26.7051 34.932 26.4331 34.388C26.1838 33.844 26.0591 33.1753 26.0591 32.382C26.0591 31.6567 26.1271 30.9427 26.2631 30.24C26.3311 29.9227 26.3991 29.6053 26.4671 29.288C26.5578 28.948 26.6598 28.5967 26.7731 28.234C26.3878 28.9367 25.9798 29.6167 25.5491 30.274C25.1411 30.9313 24.7218 31.5093 24.2911 32.008C23.5658 32.892 22.7951 33.6287 21.9791 34.218C21.1858 34.8073 20.3925 35.102 19.5991 35.102C18.9645 35.102 18.4205 34.8753 17.9671 34.422C17.5365 33.946 17.3211 33.13 17.3211 31.974C17.3211 30.7953 17.5251 29.5827 17.9331 28.336C18.3411 27.0893 18.9078 25.9333 19.6331 24.868C20.3811 23.78 21.2538 22.9073 22.2511 22.25C23.2711 21.5927 24.3818 21.264 25.5831 21.264C25.9685 21.264 26.3878 21.3207 26.8411 21.434C27.2945 21.5473 27.7138 21.7627 28.0991 22.08C28.4845 22.3747 28.7451 22.794 28.8811 23.338C28.9038 23.2927 28.9265 23.2587 28.9491 23.236C28.9945 23.2133 29.0285 23.1907 29.0511 23.168C29.3685 22.6693 29.7311 22.25 30.1391 21.91C30.5471 21.57 31.0005 21.4 31.4991 21.4C31.7485 21.4 32.0998 21.4113 32.5531 21.434C33.0065 21.4567 33.3351 21.4567 33.5391 21.434C33.4258 21.5247 33.2671 21.706 33.0631 21.978C32.8818 22.25 32.7118 22.5333 32.5531 22.828C32.3945 23.1 32.2698 23.3153 32.1791 23.474C31.5671 24.6527 31.0118 25.82 30.5131 26.976C30.0145 28.132 29.6291 29.2427 29.3571 30.308C29.2891 30.5347 29.2438 30.75 29.2211 30.954C29.1985 31.1353 29.1871 31.3167 29.1871 31.498C29.1871 32.0873 29.3798 32.382 29.7651 32.382C30.1278 32.382 30.5811 32.1553 31.1251 31.702C31.9185 31.0673 32.6098 30.274 33.1991 29.322C33.8111 28.37 34.3438 27.452 34.7971 26.568C34.8878 26.4093 34.9671 26.33 35.0351 26.33C35.1711 26.33 35.2391 26.5227 35.2391 26.908C35.2391 27.0893 35.2051 27.2933 35.1371 27.52C35.0918 27.7467 35.0125 27.962 34.8991 28.166C34.5818 28.71 34.1625 29.3787 33.6411 30.172C33.1425 30.9653 32.5758 31.7473 31.9411 32.518C31.3065 33.266 30.6378 33.9007 29.9351 34.422C29.2551 34.9433 28.5751 35.204 27.8951 35.204ZM21.1291 32.246C21.1971 32.2687 21.2991 32.28 21.4351 32.28C21.8658 32.28 22.3305 32.0987 22.8291 31.736C23.3278 31.3733 23.8265 30.9087 24.3251 30.342C24.8238 29.7527 25.2658 29.1633 25.6511 28.574C26.6485 26.9873 27.3851 25.7973 27.8611 25.004C28.3371 24.2107 28.6091 23.7573 28.6771 23.644C28.5638 23.2587 28.3598 22.9753 28.0651 22.794C27.7931 22.6127 27.4645 22.522 27.0791 22.522C26.5805 22.522 26.0478 22.658 25.4811 22.93C24.9371 23.202 24.4725 23.5307 24.0871 23.916C23.4978 24.5053 22.9311 25.2647 22.3871 26.194C21.8658 27.1233 21.4351 28.0413 21.0951 28.948C20.7778 29.8547 20.6191 30.614 20.6191 31.226C20.6191 31.7927 20.7891 32.1327 21.1291 32.246ZM34.7175 41.834C34.1508 41.834 33.5501 41.7433 32.9155 41.562C32.3035 41.4033 31.7935 41.12 31.3855 40.712C30.9548 40.304 30.7395 39.76 30.7395 39.08C30.7395 38.604 30.8868 38.162 31.1815 37.754C31.4761 37.346 31.8841 37.142 32.4055 37.142C32.7228 37.142 33.0175 37.2213 33.2895 37.38C33.5615 37.5613 33.7428 37.7767 33.8335 38.026C33.7881 38.0487 33.7201 38.1167 33.6295 38.23C33.5388 38.3433 33.4821 38.4227 33.4595 38.468C33.3008 38.7853 33.2215 39.114 33.2215 39.454C33.2215 39.8847 33.3688 40.2247 33.6635 40.474C33.9808 40.746 34.3775 40.882 34.8535 40.882C35.4655 40.882 36.1001 40.6553 36.7575 40.202C37.4828 39.6807 38.0495 39.0007 38.4575 38.162C38.8881 37.346 39.2281 36.6093 39.4775 35.952L41.4155 30.784C41.0075 31.2827 40.5768 31.7927 40.1235 32.314C39.6928 32.8127 39.4208 33.1187 39.3075 33.232C38.4461 34.0933 37.6755 34.6373 36.9955 34.864C36.3155 35.0907 35.7148 35.204 35.1935 35.204C34.6495 35.204 34.1848 34.966 33.7995 34.49C33.4368 34.014 33.2555 33.3227 33.2555 32.416C33.2555 31.9627 33.3235 31.3847 33.4595 30.682C33.5955 29.9793 33.7881 29.2313 34.0375 28.438C34.2868 27.622 34.5701 26.8287 34.8875 26.058C35.2275 25.2647 35.5901 24.562 35.9755 23.95C36.5648 23.0207 37.2221 22.42 37.9475 22.148C38.6728 21.876 39.5908 21.74 40.7015 21.74C40.7921 21.74 40.8375 21.7853 40.8375 21.876C40.8375 21.9667 40.7695 22.08 40.6335 22.216C40.3161 22.488 39.9308 22.964 39.4775 23.644C39.0241 24.324 38.5821 25.072 38.1515 25.888C37.7435 26.704 37.4035 27.486 37.1315 28.234C36.9501 28.7553 36.7688 29.3673 36.5875 30.07C36.4288 30.7727 36.3495 31.3847 36.3495 31.906C36.3495 32.2687 36.3948 32.5633 36.4855 32.79C36.5988 32.994 36.7688 33.096 36.9955 33.096C37.3581 33.096 37.8568 32.824 38.4915 32.28C39.4435 31.4867 40.3048 30.512 41.0755 29.356C41.8461 28.2 42.5035 26.9987 43.0475 25.752C43.3648 25.0267 43.6255 24.4147 43.8295 23.916C44.0335 23.3947 44.2601 22.9753 44.5095 22.658C44.7588 22.3407 45.1101 22.114 45.5635 21.978C46.0168 21.8193 46.6288 21.74 47.3995 21.74H48.7935C48.3628 22.012 47.9321 22.522 47.5015 23.27C47.0708 23.9953 46.6628 24.8567 46.2775 25.854C45.9828 26.5793 45.6768 27.3727 45.3595 28.234C45.0648 29.0953 44.7588 29.968 44.4415 30.852C44.1695 31.668 43.8748 32.5633 43.5575 33.538C43.2401 34.49 42.8775 35.4193 42.4695 36.326C42.0615 37.2553 41.5855 38.06 41.0415 38.74C40.2708 39.692 39.3301 40.44 38.2195 40.984C37.1088 41.5507 35.9415 41.834 34.7175 41.834ZM49.8408 35.204C49.2061 35.204 48.7301 34.9773 48.4128 34.524C48.0955 34.048 47.9368 33.4133 47.9368 32.62C47.9368 32.5067 47.9368 32.3933 47.9368 32.28C47.9368 32.1667 47.9481 32.0533 47.9708 31.94C48.0841 31.0787 48.2768 30.104 48.5488 29.016C48.8435 27.928 49.1835 26.7833 49.5688 25.582C49.7955 24.902 50.0788 24.052 50.4188 23.032C50.7815 21.9893 51.2008 20.8787 51.6768 19.7C52.1528 18.4987 52.6741 17.3087 53.2408 16.13C53.8301 14.9513 54.4761 13.886 55.1788 12.934C55.8815 11.9593 56.6181 11.1773 57.3888 10.588C58.1821 9.99867 59.0208 9.704 59.9048 9.704C60.6301 9.704 61.1288 9.88533 61.4008 10.248C61.6728 10.588 61.8088 10.996 61.8088 11.472C61.8088 11.9707 61.7181 12.4807 61.5368 13.002C61.3555 13.5007 61.1741 13.92 60.9928 14.26C60.5848 15.076 60.0521 15.994 59.3948 17.014C58.7375 18.034 58.0461 18.986 57.3208 19.87C56.8901 20.4367 56.3575 21.0713 55.7228 21.774C55.0881 22.4767 54.4875 23.1227 53.9208 23.712C53.3768 24.3013 52.9801 24.7093 52.7308 24.936L52.1868 26.5C52.0281 26.9307 51.8695 27.4407 51.7108 28.03C51.5748 28.6193 51.4501 29.2087 51.3368 29.798C51.2461 30.3647 51.1668 30.8633 51.0988 31.294C51.0761 31.3847 51.0648 31.4753 51.0648 31.566C51.0648 31.6567 51.0648 31.736 51.0648 31.804C51.0648 32.484 51.3255 32.824 51.8468 32.824C52.1641 32.824 52.5608 32.6767 53.0368 32.382C53.4901 32.11 53.9208 31.7587 54.3288 31.328C54.7595 30.8747 55.0655 30.5347 55.2468 30.308C55.7001 29.7187 56.1308 29.0953 56.5388 28.438C56.9468 27.758 57.2981 27.1347 57.5928 26.568C57.7061 26.3867 57.7855 26.296 57.8308 26.296C57.9668 26.296 58.0348 26.4887 58.0348 26.874C58.0348 27.0553 58.0008 27.2707 57.9328 27.52C57.8875 27.7467 57.8081 27.962 57.6948 28.166C57.3775 28.71 57.0035 29.3107 56.5728 29.968C56.1421 30.6253 55.7001 31.26 55.2468 31.872C54.9068 32.3253 54.4308 32.8127 53.8188 33.334C53.2068 33.8553 52.5495 34.2973 51.8468 34.66C51.1441 35.0227 50.4755 35.204 49.8408 35.204ZM53.4108 22.998C54.5441 21.6607 55.6888 20.2327 56.8448 18.714C58.0235 17.1727 58.9981 15.6087 59.7688 14.022C59.8141 13.9087 59.9161 13.682 60.0748 13.342C60.2335 13.002 60.3808 12.628 60.5168 12.22C60.6528 11.7893 60.7208 11.4267 60.7208 11.132C60.7208 10.7467 60.5735 10.554 60.2788 10.554H60.0408C59.7461 10.554 59.3948 10.758 58.9868 11.166C58.6015 11.574 58.2048 12.118 57.7968 12.798C57.2755 13.6593 56.7655 14.6567 56.2668 15.79C55.7681 16.9007 55.2808 18.0793 54.8048 19.326C54.3288 20.5727 53.8641 21.7967 53.4108 22.998ZM60.3152 35.272C59.2725 35.272 58.3659 34.9433 57.5952 34.286C56.8472 33.6287 56.4732 32.5747 56.4732 31.124C56.4732 30.0587 56.6659 28.948 57.0512 27.792C57.4365 26.636 57.9805 25.5593 58.6832 24.562C59.4085 23.5647 60.2812 22.7487 61.3012 22.114C62.3212 21.4793 63.4659 21.162 64.7352 21.162C65.7779 21.162 66.5825 21.366 67.1492 21.774C67.7385 22.1593 68.1579 22.6807 68.4072 23.338C68.6565 23.9953 68.7812 24.698 68.7812 25.446C68.7812 26.0127 68.7132 26.5907 68.5772 27.18C68.4639 27.7467 68.2939 28.3133 68.0672 28.88C68.4525 29.3333 68.9399 29.56 69.5292 29.56C70.1639 29.56 70.7532 29.322 71.2972 28.846C71.6145 28.574 71.8979 28.234 72.1472 27.826C72.4192 27.3953 72.6572 26.9987 72.8612 26.636C72.9292 26.5 73.0085 26.432 73.0992 26.432C73.2125 26.432 73.2692 26.5907 73.2692 26.908C73.2692 27.112 73.2352 27.35 73.1672 27.622C73.1219 27.894 73.0085 28.166 72.8272 28.438C72.4872 29.0273 72.1359 29.4807 71.7732 29.798C71.4105 30.0927 71.0025 30.3307 70.5492 30.512C70.2092 30.648 69.8465 30.716 69.4612 30.716C68.7585 30.716 68.1239 30.5007 67.5572 30.07C67.3759 30.4553 67.1492 30.852 66.8772 31.26C66.2199 32.3707 65.3699 33.3227 64.3272 34.116C63.2845 34.8867 61.9472 35.272 60.3152 35.272ZM61.6072 33.98C62.1285 33.98 62.6272 33.81 63.1032 33.47C63.6019 33.1073 64.0552 32.6653 64.4632 32.144C64.8712 31.6227 65.2225 31.0787 65.5172 30.512C65.8345 29.9453 66.0952 29.4467 66.2992 29.016C65.5285 28.3587 65.1432 27.5313 65.1432 26.534C65.1432 25.8767 65.3245 25.3667 65.6872 25.004C66.0499 24.6413 66.5485 24.4827 67.1832 24.528C67.1605 24.0067 67.0245 23.576 66.7752 23.236C66.5259 22.896 66.1179 22.726 65.5512 22.726C65.0299 22.726 64.5312 22.8847 64.0552 23.202C63.6019 23.5193 63.1712 23.9273 62.7632 24.426C62.3779 24.902 62.0265 25.4007 61.7092 25.922C61.4145 26.4207 61.1652 26.874 60.9612 27.282C60.6665 27.8713 60.3945 28.5853 60.1452 29.424C59.8959 30.2627 59.7712 31.0447 59.7712 31.77C59.7712 32.4047 59.8959 32.9373 60.1452 33.368C60.4172 33.776 60.9045 33.98 61.6072 33.98ZM80.7545 35.204C80.0518 35.204 79.5645 34.932 79.2925 34.388C79.0432 33.844 78.9185 33.1753 78.9185 32.382C78.9185 31.6567 78.9865 30.9427 79.1225 30.24C79.1905 29.9227 79.2585 29.6053 79.3265 29.288C79.4172 28.948 79.5192 28.5967 79.6325 28.234C79.2472 28.9367 78.8392 29.6167 78.4085 30.274C78.0005 30.9313 77.5812 31.5093 77.1505 32.008C76.4252 32.892 75.6545 33.6287 74.8385 34.218C74.0452 34.8073 73.2518 35.102 72.4585 35.102C71.8238 35.102 71.2798 34.8753 70.8265 34.422C70.3958 33.946 70.1805 33.13 70.1805 31.974C70.1805 30.7953 70.3845 29.5827 70.7925 28.336C71.2005 27.0893 71.7672 25.9333 72.4925 24.868C73.2405 23.78 74.1132 22.9073 75.1105 22.25C76.1305 21.5927 77.2412 21.264 78.4425 21.264C78.8278 21.264 79.2472 21.3207 79.7005 21.434C80.1538 21.5473 80.5732 21.7627 80.9585 22.08C81.3438 22.3747 81.6045 22.794 81.7405 23.338C81.7632 23.2927 81.7858 23.2587 81.8085 23.236C81.8538 23.2133 81.8878 23.1907 81.9105 23.168C82.2278 22.6693 82.5905 22.25 82.9985 21.91C83.4065 21.57 83.8598 21.4 84.3585 21.4C84.6078 21.4 84.9592 21.4113 85.4125 21.434C85.8658 21.4567 86.1945 21.4567 86.3985 21.434C86.2852 21.5247 86.1265 21.706 85.9225 21.978C85.7412 22.25 85.5712 22.5333 85.4125 22.828C85.2538 23.1 85.1292 23.3153 85.0385 23.474C84.4265 24.6527 83.8712 25.82 83.3725 26.976C82.8738 28.132 82.4885 29.2427 82.2165 30.308C82.1485 30.5347 82.1032 30.75 82.0805 30.954C82.0578 31.1353 82.0465 31.3167 82.0465 31.498C82.0465 32.0873 82.2392 32.382 82.6245 32.382C82.9872 32.382 83.4405 32.1553 83.9845 31.702C84.7778 31.0673 85.4692 30.274 86.0585 29.322C86.6705 28.37 87.2032 27.452 87.6565 26.568C87.7472 26.4093 87.8265 26.33 87.8945 26.33C88.0305 26.33 88.0985 26.5227 88.0985 26.908C88.0985 27.0893 88.0645 27.2933 87.9965 27.52C87.9512 27.7467 87.8718 27.962 87.7585 28.166C87.4412 28.71 87.0218 29.3787 86.5005 30.172C86.0018 30.9653 85.4352 31.7473 84.8005 32.518C84.1658 33.266 83.4972 33.9007 82.7945 34.422C82.1145 34.9433 81.4345 35.204 80.7545 35.204ZM73.9885 32.246C74.0565 32.2687 74.1585 32.28 74.2945 32.28C74.7252 32.28 75.1898 32.0987 75.6885 31.736C76.1872 31.3733 76.6858 30.9087 77.1845 30.342C77.6832 29.7527 78.1252 29.1633 78.5105 28.574C79.5078 26.9873 80.2445 25.7973 80.7205 25.004C81.1965 24.2107 81.4685 23.7573 81.5365 23.644C81.4232 23.2587 81.2192 22.9753 80.9245 22.794C80.6525 22.6127 80.3238 22.522 79.9385 22.522C79.4398 22.522 78.9072 22.658 78.3405 22.93C77.7965 23.202 77.3318 23.5307 76.9465 23.916C76.3572 24.5053 75.7905 25.2647 75.2465 26.194C74.7252 27.1233 74.2945 28.0413 73.9545 28.948C73.6372 29.8547 73.4785 30.614 73.4785 31.226C73.4785 31.7927 73.6485 32.1327 73.9885 32.246ZM96.9268 35.204C96.2468 35.204 95.7708 34.9547 95.4988 34.456C95.2495 33.9347 95.1248 33.2887 95.1248 32.518C95.1248 32.1553 95.1475 31.7927 95.1928 31.43C95.2382 31.0447 95.2948 30.6593 95.3628 30.274C95.4082 29.934 95.4988 29.526 95.6348 29.05C95.7708 28.5513 95.9295 28.0187 96.1108 27.452C95.6802 28.3133 95.1815 29.1973 94.6148 30.104C94.0482 30.988 93.4248 31.8153 92.7448 32.586C92.0875 33.334 91.3962 33.946 90.6708 34.422C89.9682 34.8753 89.2542 35.102 88.5288 35.102C87.8942 35.102 87.3502 34.8753 86.8968 34.422C86.4662 33.946 86.2508 33.13 86.2508 31.974C86.2508 30.7953 86.4548 29.5827 86.8628 28.336C87.2708 27.0893 87.8375 25.9333 88.5628 24.868C89.3108 23.78 90.1835 22.9073 91.1808 22.25C92.2008 21.5927 93.3115 21.264 94.5128 21.264C95.0115 21.264 95.5668 21.366 96.1788 21.57C96.7908 21.774 97.2555 22.1707 97.5728 22.76C97.6862 22.5787 97.7768 22.3973 97.8448 22.216C97.9128 22.0347 97.9808 21.876 98.0488 21.74C98.5928 20.5387 99.0575 19.4053 99.4428 18.34C99.8282 17.2747 100.168 16.4473 100.463 15.858C100.848 15.0873 101.154 14.5093 101.381 14.124C101.607 13.716 101.811 13.4327 101.993 13.274C102.197 13.1153 102.423 13.002 102.673 12.934C102.877 12.8887 103.103 12.8547 103.353 12.832C103.602 12.8093 103.863 12.798 104.135 12.798C104.407 12.798 104.713 12.798 105.053 12.798C105.415 12.798 105.642 12.7867 105.733 12.764C105.347 13.036 104.894 13.5913 104.373 14.43C103.851 15.2687 103.307 16.2773 102.741 17.456C102.174 18.6347 101.619 19.8927 101.075 21.23C100.553 22.5447 100.066 23.8593 99.6128 25.174C99.1822 26.466 98.8308 27.6447 98.5588 28.71C98.3095 29.7753 98.1848 30.6367 98.1848 31.294C98.1848 32.0193 98.3888 32.382 98.7968 32.382C99.0688 32.382 99.3862 32.246 99.7488 31.974C100.134 31.702 100.485 31.396 100.803 31.056C101.12 30.716 101.347 30.4667 101.483 30.308C101.936 29.7187 102.367 29.0953 102.775 28.438C103.183 27.758 103.534 27.1233 103.829 26.534C103.942 26.3527 104.021 26.262 104.067 26.262C104.225 26.262 104.305 26.466 104.305 26.874C104.305 27.3047 104.191 27.7127 103.965 28.098C103.647 28.642 103.262 29.254 102.809 29.934C102.378 30.5913 101.936 31.2373 101.483 31.872C101.165 32.28 100.746 32.7447 100.225 33.266C99.7262 33.7873 99.1822 34.2407 98.5928 34.626C98.0262 35.0113 97.4708 35.204 96.9268 35.204ZM90.0588 32.246C90.1268 32.2687 90.2288 32.28 90.3648 32.28C90.9995 32.28 91.7362 31.8607 92.5748 31.022C93.4362 30.1607 94.2975 29.0387 95.1588 27.656C95.3402 27.384 95.5555 26.9987 95.8048 26.5C96.0542 26.0013 96.3148 25.4573 96.5868 24.868C96.8815 24.256 97.1535 23.6893 97.4028 23.168C97.2442 22.9413 97.0402 22.7827 96.7908 22.692C96.5642 22.6013 96.3148 22.556 96.0428 22.556C95.5442 22.556 95.0115 22.692 94.4448 22.964C93.8782 23.2133 93.4022 23.5307 93.0168 23.916C92.4275 24.5053 91.8608 25.2647 91.3168 26.194C90.7955 27.1233 90.3648 28.0413 90.0248 28.948C89.7075 29.8547 89.5488 30.614 89.5488 31.226C89.5488 31.7927 89.7188 32.1327 90.0588 32.246ZM105.815 35C106.314 33.7307 106.881 32.3253 107.515 30.784C108.173 29.22 108.853 27.622 109.555 25.99C110.258 24.358 110.949 22.7713 111.629 21.23C112.332 19.6887 112.967 18.2833 113.533 17.014C114.123 15.722 114.61 14.6567 114.995 13.818C115.381 12.9793 115.63 12.458 115.743 12.254C114.746 12.2313 113.726 12.3333 112.683 12.56C111.641 12.764 110.666 13.0587 109.759 13.444C108.853 13.8293 108.082 14.2713 107.447 14.77C106.835 15.2687 106.439 15.79 106.257 16.334C106.235 16.402 106.189 16.436 106.121 16.436C105.94 16.436 105.849 16.2887 105.849 15.994C105.849 15.9487 105.849 15.9033 105.849 15.858C105.872 15.79 105.895 15.722 105.917 15.654C106.121 15.0647 106.371 14.5433 106.665 14.09C106.983 13.6367 107.289 13.2513 107.583 12.934C108.331 12.1633 109.17 11.6987 110.099 11.54C111.029 11.3587 112.015 11.268 113.057 11.268H118.803C118.758 11.3587 118.667 11.54 118.531 11.812C118.395 12.084 118.327 12.5373 118.327 13.172C118.327 13.8293 118.452 14.7247 118.701 15.858C118.973 16.9913 119.495 18.4533 120.265 20.244C120.56 20.9467 120.832 21.604 121.081 22.216C121.331 22.8053 121.546 23.3607 121.727 23.882C122.067 24.7887 122.317 25.514 122.475 26.058C122.634 26.5793 122.736 26.9873 122.781 27.282C122.849 27.5767 122.883 27.8373 122.883 28.064C122.906 28.268 122.929 28.4947 122.951 28.744C123.223 28.064 123.597 27.1687 124.073 26.058C124.549 24.9473 125.071 23.7233 125.637 22.386C126.227 21.0487 126.827 19.6887 127.439 18.306C128.051 16.9233 128.629 15.62 129.173 14.396C129.717 13.172 130.171 12.1293 130.533 11.268C130.601 11.1547 130.839 11.098 131.247 11.098C131.655 11.098 132.12 11.132 132.641 11.2C133.163 11.268 133.514 11.302 133.695 11.302C133.061 11.7327 132.381 12.56 131.655 13.784C130.953 15.008 130.182 16.4813 129.343 18.204C128.641 19.6547 127.938 21.1847 127.235 22.794C126.555 24.3807 125.932 25.9333 125.365 27.452C124.821 28.948 124.379 30.308 124.039 31.532C123.722 32.756 123.563 33.708 123.563 34.388C123.563 34.5013 123.563 34.6147 123.563 34.728C123.586 34.8187 123.609 34.9093 123.631 35H121.489C121.467 34.32 121.387 33.6853 121.251 33.096C121.115 32.5067 120.9 31.838 120.605 31.09C120.311 30.3193 119.903 29.3673 119.381 28.234C118.883 27.078 118.259 25.616 117.511 23.848C116.854 22.3067 116.367 20.958 116.049 19.802C115.755 18.646 115.573 17.66 115.505 16.844C115.143 17.66 114.712 18.6347 114.213 19.768C113.737 20.8787 113.239 22.0573 112.717 23.304C112.196 24.5507 111.697 25.7973 111.221 27.044C110.745 28.2907 110.315 29.458 109.929 30.546C109.567 31.634 109.295 32.5747 109.113 33.368C108.932 34.1387 108.875 34.6827 108.943 35H105.815ZM128.429 35.204C127.84 35.204 127.353 34.932 126.967 34.388C126.605 33.8213 126.469 32.9487 126.559 31.77C126.605 31.2713 126.718 30.6367 126.899 29.866C127.081 29.0953 127.319 28.268 127.613 27.384C127.931 26.4773 128.282 25.6047 128.667 24.766C129.053 23.9047 129.472 23.1453 129.925 22.488C130.175 22.148 130.424 21.944 130.673 21.876C130.945 21.7853 131.433 21.74 132.135 21.74H133.767C133.382 22.284 132.974 22.964 132.543 23.78C132.113 24.596 131.716 25.412 131.353 26.228C130.991 27.0213 130.707 27.69 130.503 28.234C130.458 28.3927 130.367 28.676 130.231 29.084C130.095 29.4693 129.971 29.9 129.857 30.376C129.744 30.852 129.687 31.294 129.687 31.702C129.687 32.0647 129.755 32.3707 129.891 32.62C130.027 32.8693 130.277 32.994 130.639 32.994C131.07 32.9713 131.535 32.6993 132.033 32.178C132.532 31.6567 133.031 30.988 133.529 30.172C134.028 29.356 134.515 28.506 134.991 27.622C135.49 26.7153 135.932 25.8767 136.317 25.106C136.725 24.3127 137.065 23.7007 137.337 23.27C137.677 22.7487 138.04 22.2953 138.425 21.91C138.811 21.502 139.253 21.298 139.751 21.298C139.933 21.298 140.171 21.3093 140.465 21.332C140.783 21.332 141.089 21.332 141.383 21.332C141.701 21.332 141.916 21.3207 142.029 21.298C141.893 21.3887 141.735 21.57 141.553 21.842C141.372 22.114 141.191 22.3973 141.009 22.692C140.851 22.964 140.726 23.1907 140.635 23.372C140.046 24.5507 139.468 25.7407 138.901 26.942C138.357 28.1207 137.949 29.2427 137.677 30.308C137.564 30.716 137.507 31.0673 137.507 31.362C137.507 32.042 137.734 32.382 138.187 32.382C138.505 32.382 138.958 32.1553 139.547 31.702C140.001 31.3393 140.443 30.8747 140.873 30.308C141.349 29.7187 141.791 29.084 142.199 28.404C142.607 27.724 142.959 27.1007 143.253 26.534C143.344 26.3753 143.423 26.296 143.491 26.296C143.627 26.296 143.695 26.4773 143.695 26.84C143.695 27.0213 143.661 27.2367 143.593 27.486C143.548 27.7127 143.457 27.9393 143.321 28.166C143.004 28.71 142.63 29.3107 142.199 29.968C141.769 30.6027 141.327 31.2373 140.873 31.872C140.556 32.28 140.137 32.7447 139.615 33.266C139.094 33.7873 138.539 34.2407 137.949 34.626C137.383 35.0113 136.827 35.204 136.283 35.204C135.966 35.204 135.671 35.136 135.399 35C135.127 34.8867 134.901 34.6487 134.719 34.286C134.493 33.81 134.379 33.164 134.379 32.348C134.379 32.0987 134.391 31.838 134.413 31.566C134.436 31.2713 134.47 30.9767 134.515 30.682C134.175 31.158 133.813 31.6 133.427 32.008C133.065 32.416 132.691 32.824 132.305 33.232C131.444 34.0933 130.707 34.6373 130.095 34.864C129.506 35.0907 128.951 35.204 128.429 35.204ZM150.979 35.306C149.982 35.306 149.177 34.9093 148.565 34.116C147.976 33.3 147.466 32.1327 147.035 30.614C146.332 31.362 145.63 32.0873 144.927 32.79C144.224 33.4927 143.567 34.2293 142.955 35H140.439C140.824 34.66 141.572 33.9687 142.683 32.926C143.794 31.8833 145.086 30.6367 146.559 29.186C146.332 28.5287 146.094 27.8033 145.845 27.01C145.596 26.194 145.38 25.4007 145.199 24.63C144.995 25.038 144.734 25.5593 144.417 26.194C144.122 26.8287 143.692 27.5993 143.125 28.506C143.057 28.6193 143 28.5853 142.955 28.404C142.91 28.2227 142.887 28.0073 142.887 27.758C142.887 27.3953 142.932 27.1233 143.023 26.942C143.59 25.8767 143.986 25.004 144.213 24.324C144.462 23.644 144.7 22.9527 144.927 22.25C145.108 21.706 145.482 21.434 146.049 21.434H147.817C147.93 22.114 148.112 22.93 148.361 23.882C148.61 24.8113 148.882 25.752 149.177 26.704C149.789 26.092 150.469 25.344 151.217 24.46C151.988 23.5533 152.781 22.6467 153.597 21.74C153.733 21.5813 153.971 21.4907 154.311 21.468C154.674 21.4227 155.025 21.4113 155.365 21.434C155.728 21.434 155.977 21.434 156.113 21.434C154.934 22.4767 153.812 23.5307 152.747 24.596C151.682 25.6613 150.582 26.7833 149.449 27.962C149.608 28.4153 149.8 28.9707 150.027 29.628C150.254 30.2627 150.503 30.8633 150.775 31.43C151.047 31.9967 151.33 32.416 151.625 32.688C151.897 32.9373 152.214 33.062 152.577 33.062C153.03 33.062 153.484 32.892 153.937 32.552C154.39 32.212 154.81 31.8267 155.195 31.396C155.58 30.9653 155.886 30.6027 156.113 30.308C156.566 29.7187 156.997 29.0953 157.405 28.438C157.836 27.758 158.21 27.1007 158.527 26.466C158.618 26.3073 158.697 26.228 158.765 26.228C158.878 26.228 158.935 26.398 158.935 26.738C158.935 26.942 158.901 27.1687 158.833 27.418C158.788 27.6673 158.697 27.9167 158.561 28.166C158.176 28.8233 157.779 29.458 157.371 30.07C156.986 30.682 156.566 31.2713 156.113 31.838C155.75 32.2913 155.274 32.79 154.685 33.334C154.118 33.878 153.506 34.3427 152.849 34.728C152.214 35.1133 151.591 35.306 150.979 35.306ZM160.031 35.204C159.374 35.204 158.875 34.9433 158.535 34.422C158.376 34.1727 158.263 33.878 158.195 33.538C158.127 33.198 158.093 32.8467 158.093 32.484C158.093 32.1213 158.116 31.7587 158.161 31.396C158.206 31.0107 158.263 30.6367 158.331 30.274C158.444 29.6847 158.569 29.152 158.705 28.676C158.864 28.1773 159.022 27.7013 159.181 27.248V27.214C159 27.554 158.773 27.928 158.501 28.336C158.229 28.7213 158.036 29.0047 157.923 29.186C157.764 29.4353 157.64 29.56 157.549 29.56C157.458 29.56 157.413 29.458 157.413 29.254C157.413 28.8007 157.549 28.302 157.821 27.758C158.002 27.3953 158.252 26.9307 158.569 26.364C158.886 25.7747 159.215 25.14 159.555 24.46C159.895 23.78 160.19 23.1227 160.439 22.488H158.161C158.048 22.488 158.025 22.3973 158.093 22.216C158.161 22.0347 158.263 21.8647 158.399 21.706C158.535 21.5247 158.637 21.434 158.705 21.434H161.289C161.538 20.8447 161.822 20.21 162.139 19.53C162.479 18.85 162.853 18.2153 163.261 17.626C163.692 17.014 164.156 16.5153 164.655 16.13C165.154 15.7447 165.686 15.552 166.253 15.552C166.502 15.552 166.808 15.552 167.171 15.552C167.556 15.552 167.794 15.5407 167.885 15.518C167.409 15.8353 166.854 16.47 166.219 17.422C165.584 18.3513 164.893 19.6887 164.145 21.434H167.579C167.647 21.434 167.624 21.5247 167.511 21.706C167.398 21.8647 167.25 22.0347 167.069 22.216C166.91 22.3973 166.752 22.488 166.593 22.488H163.669C163.374 23.236 163.046 24.052 162.683 24.936C162.343 25.82 162.026 26.6927 161.731 27.554C161.459 28.3927 161.255 29.1633 161.119 29.866C161.028 30.2967 160.983 30.6933 160.983 31.056C160.983 31.9173 161.255 32.348 161.799 32.348C162.162 32.348 162.592 32.1667 163.091 31.804C163.59 31.4413 164.088 30.9427 164.587 30.308C165.04 29.7187 165.471 29.084 165.879 28.404C166.31 27.724 166.672 27.1007 166.967 26.534C167.058 26.3753 167.137 26.296 167.205 26.296C167.341 26.296 167.409 26.4773 167.409 26.84C167.409 27.0213 167.375 27.2367 167.307 27.486C167.262 27.7127 167.171 27.9393 167.035 28.166C166.718 28.71 166.344 29.3107 165.913 29.968C165.482 30.6027 165.04 31.2373 164.587 31.872C164.27 32.28 163.85 32.7447 163.329 33.266C162.83 33.7873 162.286 34.2407 161.697 34.626C161.13 35.0113 160.575 35.204 160.031 35.204ZM175.053 35.68C173.92 35.68 172.866 35.578 171.891 35.374C170.917 35.17 170.101 34.83 169.443 34.354C168.99 34.014 168.639 33.5833 168.389 33.062C168.163 32.5407 168.049 32.008 168.049 31.464C168.049 30.784 168.242 30.1493 168.627 29.56C169.013 28.9707 169.625 28.574 170.463 28.37C170.577 28.3473 170.679 28.336 170.769 28.336C170.883 28.3133 170.985 28.302 171.075 28.302C171.529 28.302 171.925 28.404 172.265 28.608C172.628 28.812 172.877 29.05 173.013 29.322C172.923 29.39 172.798 29.5147 172.639 29.696C172.481 29.8547 172.379 29.9907 172.333 30.104C171.993 30.6707 171.823 31.2373 171.823 31.804C171.823 32.5747 172.118 33.2093 172.707 33.708C173.319 34.184 174.113 34.422 175.087 34.422C175.971 34.422 176.799 34.2067 177.569 33.776C178.363 33.3227 178.997 32.722 179.473 31.974C179.972 31.226 180.221 30.3647 180.221 29.39C180.221 28.6647 180.051 27.894 179.711 27.078C179.417 26.3753 179.009 25.752 178.487 25.208C177.989 24.664 177.513 24.154 177.059 23.678C176.447 23.0207 175.858 22.386 175.291 21.774C174.747 21.1393 174.294 20.4593 173.931 19.734C173.591 18.986 173.421 18.1473 173.421 17.218C173.421 16.334 173.603 15.4727 173.965 14.634C174.351 13.7953 174.895 13.0813 175.597 12.492C176.391 11.812 177.297 11.336 178.317 11.064C179.337 10.792 180.403 10.656 181.513 10.656C182.896 10.656 183.984 10.8373 184.777 11.2C185.593 11.54 186.171 11.982 186.511 12.526C186.874 13.07 187.055 13.648 187.055 14.26C187.055 14.8493 186.919 15.416 186.647 15.96C186.398 16.504 186.047 16.9687 185.593 17.354C185.14 17.7167 184.641 17.9433 184.097 18.034C184.007 18.0567 183.916 18.068 183.825 18.068C183.735 18.068 183.633 18.068 183.519 18.068C183.021 18.068 182.579 17.9547 182.193 17.728C181.831 17.5013 181.649 17.116 181.649 16.572C181.649 16.504 181.649 16.4247 181.649 16.334C181.672 16.2433 181.695 16.1527 181.717 16.062C182.125 16.062 182.545 15.9147 182.975 15.62C183.406 15.3253 183.689 14.9967 183.825 14.634C183.939 14.3393 183.995 14.0673 183.995 13.818C183.995 13.206 183.712 12.73 183.145 12.39C182.601 12.0273 181.955 11.846 181.207 11.846C180.323 11.846 179.53 12.0387 178.827 12.424C178.147 12.7867 177.615 13.274 177.229 13.886C176.844 14.4753 176.651 15.1213 176.651 15.824C176.651 16.5267 176.867 17.2067 177.297 17.864C177.66 18.3853 178.113 18.9293 178.657 19.496C179.201 20.04 179.757 20.5727 180.323 21.094C180.89 21.5927 181.377 22.0573 181.785 22.488C182.715 23.3947 183.383 24.324 183.791 25.276C184.199 26.2053 184.403 27.1233 184.403 28.03C184.403 29.0727 184.154 30.0587 183.655 30.988C183.179 31.8947 182.511 32.6993 181.649 33.402C180.788 34.1047 179.791 34.66 178.657 35.068C177.524 35.476 176.323 35.68 175.053 35.68ZM194.346 35.204C193.575 35.204 193.043 34.9773 192.748 34.524C192.476 34.048 192.34 33.504 192.34 32.892C192.34 32.2347 192.442 31.4753 192.646 30.614C192.873 29.73 193.145 28.8233 193.462 27.894C193.802 26.942 194.142 26.058 194.482 25.242C194.595 24.97 194.697 24.6753 194.788 24.358C194.901 24.0407 194.958 23.7573 194.958 23.508C194.958 23.0547 194.754 22.828 194.346 22.828C194.187 22.828 194.006 22.862 193.802 22.93C193.598 22.9753 193.36 23.0773 193.088 23.236C192.612 23.4627 192.159 23.78 191.728 24.188C191.297 24.5733 191.003 24.868 190.844 25.072C190.549 25.4347 190.266 25.8427 189.994 26.296C189.722 26.7267 189.484 27.1687 189.28 27.622C188.827 28.5967 188.464 29.526 188.192 30.41C187.943 31.2713 187.705 32.008 187.478 32.62C187.342 33.0053 187.206 33.402 187.07 33.81C186.934 34.218 186.809 34.6147 186.696 35H183.398C183.398 35 183.477 34.7167 183.636 34.15C183.795 33.5833 183.987 33.0167 184.214 32.45C185.257 29.7527 186.243 26.9987 187.172 24.188C188.101 21.3773 189.223 18.68 190.538 16.096C191.127 14.94 191.762 13.8747 192.442 12.9C193.145 11.9253 193.881 11.1547 194.652 10.588C195.445 9.99867 196.273 9.704 197.134 9.704C197.814 9.704 198.279 9.86267 198.528 10.18C198.8 10.4747 198.936 10.8487 198.936 11.302C198.936 11.8007 198.834 12.322 198.63 12.866C198.426 13.41 198.222 13.8747 198.018 14.26C197.61 15.076 197.077 15.994 196.42 17.014C195.763 18.034 195.071 18.986 194.346 19.87C194.187 20.074 193.915 20.4027 193.53 20.856C193.145 21.2867 192.748 21.7287 192.34 22.182C191.955 22.6353 191.649 22.9867 191.422 23.236C192.17 22.692 192.816 22.2727 193.36 21.978C193.904 21.6833 194.369 21.4793 194.754 21.366C195.411 21.1847 195.955 21.094 196.386 21.094C197.678 21.094 198.324 21.6607 198.324 22.794C198.324 23.27 198.188 23.8367 197.916 24.494C197.78 24.8567 197.587 25.344 197.338 25.956C197.089 26.568 196.828 27.2253 196.556 27.928C196.307 28.608 196.091 29.2653 195.91 29.9C195.751 30.5347 195.672 31.056 195.672 31.464C195.672 31.7133 195.706 31.94 195.774 32.144C195.865 32.3253 196.023 32.416 196.25 32.416C196.409 32.416 196.635 32.3367 196.93 32.178C197.565 31.8153 198.154 31.3053 198.698 30.648C199.265 29.9907 199.763 29.288 200.194 28.54C200.647 27.792 201.033 27.112 201.35 26.5C201.418 26.3413 201.497 26.262 201.588 26.262C201.701 26.262 201.758 26.4547 201.758 26.84C201.758 27.0213 201.735 27.2367 201.69 27.486C201.645 27.7127 201.554 27.9393 201.418 28.166C201.101 28.71 200.681 29.3787 200.16 30.172C199.661 30.9653 199.095 31.7473 198.46 32.518C197.825 33.266 197.157 33.9007 196.454 34.422C195.751 34.9433 195.049 35.204 194.346 35.204ZM190.436 22.998C191.569 21.6607 192.714 20.2327 193.87 18.714C195.049 17.1727 196.023 15.6087 196.794 14.022C196.839 13.9087 196.941 13.682 197.1 13.342C197.259 13.002 197.406 12.628 197.542 12.22C197.678 11.7893 197.746 11.4267 197.746 11.132C197.746 10.7467 197.599 10.554 197.304 10.554C197.009 10.554 196.658 10.758 196.25 11.166C195.865 11.574 195.468 12.118 195.06 12.798C194.539 13.6593 194.006 14.6567 193.462 15.79C192.918 16.9007 192.385 18.0793 191.864 19.326C191.365 20.5727 190.889 21.7967 190.436 22.998ZM204.018 35.272C202.976 35.272 202.069 34.9433 201.298 34.286C200.55 33.6287 200.176 32.5747 200.176 31.124C200.176 30.0587 200.369 28.948 200.754 27.792C201.14 26.636 201.684 25.5593 202.386 24.562C203.112 23.5647 203.984 22.7487 205.004 22.114C206.024 21.4793 207.169 21.162 208.438 21.162C209.481 21.162 210.286 21.366 210.852 21.774C211.442 22.1593 211.861 22.6807 212.11 23.338C212.36 23.9953 212.484 24.698 212.484 25.446C212.484 26.0127 212.416 26.5907 212.28 27.18C212.167 27.7467 211.997 28.3133 211.77 28.88C212.156 29.3333 212.643 29.56 213.232 29.56C213.867 29.56 214.456 29.322 215 28.846C215.318 28.574 215.601 28.234 215.85 27.826C216.122 27.3953 216.36 26.9987 216.564 26.636C216.632 26.5 216.712 26.432 216.802 26.432C216.916 26.432 216.972 26.5907 216.972 26.908C216.972 27.112 216.938 27.35 216.87 27.622C216.825 27.894 216.712 28.166 216.53 28.438C216.19 29.0273 215.839 29.4807 215.476 29.798C215.114 30.0927 214.706 30.3307 214.252 30.512C213.912 30.648 213.55 30.716 213.164 30.716C212.462 30.716 211.827 30.5007 211.26 30.07C211.079 30.4553 210.852 30.852 210.58 31.26C209.923 32.3707 209.073 33.3227 208.03 34.116C206.988 34.8867 205.65 35.272 204.018 35.272ZM205.31 33.98C205.832 33.98 206.33 33.81 206.806 33.47C207.305 33.1073 207.758 32.6653 208.166 32.144C208.574 31.6227 208.926 31.0787 209.22 30.512C209.538 29.9453 209.798 29.4467 210.002 29.016C209.232 28.3587 208.846 27.5313 208.846 26.534C208.846 25.8767 209.028 25.3667 209.39 25.004C209.753 24.6413 210.252 24.4827 210.886 24.528C210.864 24.0067 210.728 23.576 210.478 23.236C210.229 22.896 209.821 22.726 209.254 22.726C208.733 22.726 208.234 22.8847 207.758 23.202C207.305 23.5193 206.874 23.9273 206.466 24.426C206.081 24.902 205.73 25.4007 205.412 25.922C205.118 26.4207 204.868 26.874 204.664 27.282C204.37 27.8713 204.098 28.5853 203.848 29.424C203.599 30.2627 203.474 31.0447 203.474 31.77C203.474 32.4047 203.599 32.9373 203.848 33.368C204.12 33.776 204.608 33.98 205.31 33.98ZM210.112 43.432C210.225 43.2733 210.372 42.99 210.554 42.582C210.735 42.1967 210.928 41.7773 211.132 41.324C211.336 40.8707 211.506 40.4853 211.642 40.168C212.027 39.216 212.469 38.0487 212.968 36.666C213.466 35.306 213.976 33.878 214.498 32.382C215.019 30.886 215.518 29.458 215.994 28.098C216.47 26.738 216.889 25.616 217.252 24.732C217.592 23.916 217.886 23.27 218.136 22.794C218.385 22.2953 218.736 21.944 219.19 21.74C219.666 21.5133 220.38 21.4 221.332 21.4H222.352C222.034 21.6267 221.615 22.148 221.094 22.964C220.595 23.7573 220.119 24.596 219.666 25.48C219.824 25.276 219.972 25.0833 220.108 24.902C220.244 24.698 220.391 24.5167 220.55 24.358C221.275 23.474 222.046 22.7373 222.862 22.148C223.678 21.5587 224.471 21.264 225.242 21.264C225.876 21.264 226.409 21.502 226.84 21.978C227.293 22.454 227.52 23.2587 227.52 24.392C227.52 25.4347 227.316 26.4887 226.908 27.554C226.522 28.5967 226.001 29.594 225.344 30.546C224.686 31.4753 223.961 32.3027 223.168 33.028C223.009 33.1867 222.828 33.3453 222.624 33.504C222.442 33.64 222.25 33.776 222.046 33.912C222.771 33.98 223.485 33.81 224.188 33.402C224.913 32.994 225.57 32.4953 226.16 31.906C226.772 31.3167 227.27 30.784 227.656 30.308C228.109 29.7187 228.562 29.0387 229.016 28.268C229.492 27.4973 229.877 26.8173 230.172 26.228C230.262 26.0693 230.342 25.99 230.41 25.99C230.591 25.99 230.682 26.194 230.682 26.602C230.682 26.9647 230.568 27.3387 230.342 27.724C230.16 28.064 229.911 28.4947 229.594 29.016C229.276 29.5373 228.993 29.9907 228.744 30.376C227.701 31.8947 226.488 33.1413 225.106 34.116C223.723 35.0907 222.057 35.578 220.108 35.578C219.949 35.578 219.779 35.578 219.598 35.578C219.439 35.578 219.269 35.5667 219.088 35.544C218.544 35.4987 218.034 35.3627 217.558 35.136C217.082 34.932 216.764 34.5353 216.606 33.946L214.702 39.896C214.452 40.6893 214.226 41.3467 214.022 41.868C213.795 42.3893 213.523 42.7747 213.206 43.024C212.866 43.296 212.378 43.432 211.744 43.432H210.112ZM218.306 34.116C218.691 34.116 219.133 33.9233 219.632 33.538C220.13 33.13 220.618 32.6313 221.094 32.042C221.592 31.43 222.012 30.8407 222.352 30.274C222.873 29.3673 223.315 28.438 223.678 27.486C224.04 26.534 224.222 25.752 224.222 25.14C224.222 24.46 223.95 24.12 223.406 24.12C222.93 24.12 222.408 24.3467 221.842 24.8C221.434 25.1173 220.969 25.582 220.448 26.194C219.949 26.806 219.45 27.4973 218.952 28.268C218.476 29.016 218.079 29.7867 217.762 30.58C217.467 31.3507 217.32 32.0533 217.32 32.688C217.32 32.8013 217.32 32.9147 217.32 33.028C217.342 33.1187 217.365 33.2207 217.388 33.334C217.501 33.8553 217.807 34.116 218.306 34.116Z" fill="#1E1E1E"/>
</svg>
