<svg width="189" height="39" viewBox="0 0 189 39" fill="none" xmlns="http://www.w3.org/2000/svg">
<rect width="189" height="39" fill="white"/>
<path d="M1.008 13.008C1.344 13.024 1.784 13.04 2.328 13.056C2.872 13.072 3.408 13.08 3.936 13.08C4.688 13.08 5.408 13.072 6.096 13.056C6.784 13.04 7.272 13.032 7.56 13.032C9.496 13.032 10.944 13.472 11.904 14.352C12.864 15.232 13.344 16.368 13.344 17.76C13.344 18.336 13.248 18.944 13.056 19.584C12.864 20.208 12.528 20.792 12.048 21.336C11.584 21.864 10.944 22.296 10.128 22.632C9.312 22.968 8.28 23.136 7.032 23.136H4.728V22.656H6.792C7.928 22.656 8.792 22.44 9.384 22.008C9.992 21.576 10.4 21.008 10.608 20.304C10.832 19.6 10.944 18.84 10.944 18.024C10.944 16.504 10.64 15.368 10.032 14.616C9.44 13.864 8.416 13.488 6.96 13.488C6.224 13.488 5.744 13.624 5.52 13.896C5.296 14.168 5.184 14.72 5.184 15.552V27.456C5.184 28.032 5.24 28.464 5.352 28.752C5.48 29.04 5.72 29.232 6.072 29.328C6.424 29.424 6.936 29.488 7.608 29.52V30C7.192 29.968 6.664 29.952 6.024 29.952C5.384 29.936 4.736 29.928 4.08 29.928C3.456 29.928 2.872 29.936 2.328 29.952C1.784 29.952 1.344 29.968 1.008 30V29.52C1.552 29.488 1.96 29.424 2.232 29.328C2.52 29.232 2.712 29.04 2.808 28.752C2.904 28.464 2.952 28.032 2.952 27.456V15.552C2.952 14.96 2.904 14.528 2.808 14.256C2.712 13.968 2.52 13.776 2.232 13.68C1.96 13.568 1.552 13.504 1.008 13.488V13.008ZM17.979 30.168C17.323 30.168 16.755 30.048 16.275 29.808C15.795 29.552 15.427 29.2 15.171 28.752C14.931 28.304 14.811 27.784 14.811 27.192C14.811 26.488 14.971 25.912 15.291 25.464C15.627 25.016 16.051 24.656 16.563 24.384C17.075 24.112 17.611 23.888 18.171 23.712C18.747 23.52 19.291 23.344 19.803 23.184C20.315 23.008 20.731 22.808 21.051 22.584C21.387 22.36 21.555 22.064 21.555 21.696V20.208C21.555 19.536 21.451 19.024 21.243 18.672C21.051 18.32 20.787 18.088 20.451 17.976C20.115 17.848 19.739 17.784 19.323 17.784C18.923 17.784 18.491 17.84 18.027 17.952C17.579 18.064 17.219 18.296 16.947 18.648C17.251 18.712 17.515 18.872 17.739 19.128C17.963 19.384 18.075 19.712 18.075 20.112C18.075 20.512 17.947 20.832 17.691 21.072C17.435 21.296 17.107 21.408 16.707 21.408C16.243 21.408 15.899 21.264 15.675 20.976C15.467 20.672 15.363 20.336 15.363 19.968C15.363 19.552 15.467 19.216 15.675 18.96C15.883 18.704 16.147 18.464 16.467 18.24C16.835 17.984 17.307 17.768 17.883 17.592C18.475 17.4 19.139 17.304 19.875 17.304C20.531 17.304 21.091 17.384 21.555 17.544C22.019 17.688 22.403 17.904 22.707 18.192C23.123 18.576 23.395 19.048 23.523 19.608C23.651 20.152 23.715 20.808 23.715 21.576V28.248C23.715 28.648 23.771 28.936 23.883 29.112C24.011 29.288 24.203 29.376 24.459 29.376C24.635 29.376 24.803 29.336 24.963 29.256C25.123 29.176 25.315 29.048 25.539 28.872L25.803 29.28C25.467 29.536 25.147 29.752 24.843 29.928C24.539 30.088 24.131 30.168 23.619 30.168C23.155 30.168 22.771 30.088 22.467 29.928C22.163 29.768 21.931 29.536 21.771 29.232C21.627 28.912 21.555 28.512 21.555 28.032C21.123 28.752 20.603 29.288 19.995 29.64C19.403 29.992 18.731 30.168 17.979 30.168ZM18.843 29.208C19.371 29.208 19.859 29.056 20.307 28.752C20.771 28.448 21.187 27.992 21.555 27.384V22.68C21.363 22.952 21.083 23.184 20.715 23.376C20.347 23.552 19.947 23.736 19.515 23.928C19.083 24.104 18.667 24.32 18.267 24.576C17.883 24.816 17.563 25.136 17.307 25.536C17.051 25.936 16.923 26.456 16.923 27.096C16.923 27.736 17.091 28.248 17.427 28.632C17.779 29.016 18.251 29.208 18.843 29.208ZM37.5435 17.64V18.12C37.2395 18.152 36.9595 18.288 36.7035 18.528C36.4475 18.768 36.2075 19.192 35.9835 19.8L32.0475 30.12H31.6395L27.2235 19.488C26.9195 18.864 26.6155 18.488 26.3115 18.36C26.0235 18.216 25.7835 18.144 25.5915 18.144V17.64C25.9435 17.688 26.3115 17.728 26.6955 17.76C27.0795 17.776 27.4955 17.784 27.9435 17.784C28.4395 17.784 28.9595 17.768 29.5035 17.736C30.0635 17.704 30.5835 17.672 31.0635 17.64V18.144C30.6635 18.144 30.3035 18.176 29.9835 18.24C29.6795 18.288 29.4875 18.456 29.4075 18.744C29.3275 19.016 29.4235 19.488 29.6955 20.16L32.6475 27.48L32.5035 27.528L35.2395 20.376C35.4475 19.848 35.5275 19.432 35.4795 19.128C35.4475 18.808 35.2875 18.568 34.9995 18.408C34.7115 18.248 34.2795 18.152 33.7035 18.12V17.64C33.9915 17.656 34.2395 17.672 34.4475 17.688C34.6555 17.688 34.8555 17.696 35.0475 17.712C35.2555 17.712 35.4795 17.712 35.7195 17.712C36.0875 17.712 36.4155 17.704 36.7035 17.688C37.0075 17.672 37.2875 17.656 37.5435 17.64ZM32.0475 30.12L31.2315 32.208C31.0715 32.608 30.9035 32.944 30.7275 33.216C30.5675 33.488 30.3915 33.712 30.1995 33.888C29.9435 34.128 29.6395 34.288 29.2875 34.368C28.9355 34.464 28.6155 34.512 28.3275 34.512C28.0235 34.512 27.7435 34.456 27.4875 34.344C27.2475 34.232 27.0555 34.064 26.9115 33.84C26.7675 33.632 26.6955 33.376 26.6955 33.072C26.6955 32.688 26.8075 32.376 27.0315 32.136C27.2555 31.912 27.5675 31.8 27.9675 31.8C28.3035 31.8 28.5915 31.896 28.8315 32.088C29.0715 32.28 29.1915 32.56 29.1915 32.928C29.1915 33.2 29.1275 33.424 28.9995 33.6C28.8715 33.776 28.7195 33.912 28.5435 34.008C28.5755 34.024 28.5995 34.032 28.6155 34.032C28.6475 34.032 28.6715 34.032 28.6875 34.032C29.1195 34.032 29.5035 33.88 29.8395 33.576C30.1755 33.288 30.4715 32.816 30.7275 32.16L31.5915 29.928L32.0475 30.12ZM41.6839 11.184V27.768C41.6839 28.44 41.8199 28.896 42.0919 29.136C42.3799 29.376 42.8519 29.496 43.5079 29.496V30C43.2359 29.984 42.8199 29.968 42.2599 29.952C41.7159 29.92 41.1639 29.904 40.6039 29.904C40.0599 29.904 39.5079 29.92 38.9479 29.952C38.3879 29.968 37.9719 29.984 37.6999 30V29.496C38.3559 29.496 38.8199 29.376 39.0919 29.136C39.3799 28.896 39.5239 28.44 39.5239 27.768V14.064C39.5239 13.344 39.3959 12.816 39.1399 12.48C38.8839 12.128 38.4039 11.952 37.6999 11.952V11.448C38.2119 11.496 38.7079 11.52 39.1879 11.52C39.6519 11.52 40.0919 11.496 40.5079 11.448C40.9399 11.384 41.3319 11.296 41.6839 11.184ZM50.3807 17.304C51.4047 17.304 52.3247 17.528 53.1407 17.976C53.9567 18.424 54.6047 19.128 55.0847 20.088C55.5807 21.048 55.8287 22.296 55.8287 23.832C55.8287 25.368 55.5807 26.616 55.0847 27.576C54.6047 28.52 53.9567 29.216 53.1407 29.664C52.3247 30.112 51.4047 30.336 50.3807 30.336C49.3727 30.336 48.4527 30.112 47.6207 29.664C46.8047 29.216 46.1487 28.52 45.6527 27.576C45.1727 26.616 44.9327 25.368 44.9327 23.832C44.9327 22.296 45.1727 21.048 45.6527 20.088C46.1487 19.128 46.8047 18.424 47.6207 17.976C48.4527 17.528 49.3727 17.304 50.3807 17.304ZM50.3807 17.784C49.4687 17.784 48.7167 18.256 48.1247 19.2C47.5487 20.144 47.2607 21.688 47.2607 23.832C47.2607 25.976 47.5487 27.52 48.1247 28.464C48.7167 29.392 49.4687 29.856 50.3807 29.856C51.2927 29.856 52.0367 29.392 52.6127 28.464C53.2047 27.52 53.5007 25.976 53.5007 23.832C53.5007 21.688 53.2047 20.144 52.6127 19.2C52.0367 18.256 51.2927 17.784 50.3807 17.784ZM61.0571 30.168C60.4011 30.168 59.8331 30.048 59.3531 29.808C58.8731 29.552 58.5051 29.2 58.2491 28.752C58.0091 28.304 57.8891 27.784 57.8891 27.192C57.8891 26.488 58.0491 25.912 58.3691 25.464C58.7051 25.016 59.1291 24.656 59.6411 24.384C60.1531 24.112 60.6891 23.888 61.2491 23.712C61.8251 23.52 62.3691 23.344 62.8811 23.184C63.3931 23.008 63.8091 22.808 64.1291 22.584C64.4651 22.36 64.6331 22.064 64.6331 21.696V20.208C64.6331 19.536 64.5291 19.024 64.3211 18.672C64.1291 18.32 63.8651 18.088 63.5291 17.976C63.1931 17.848 62.8171 17.784 62.4011 17.784C62.0011 17.784 61.5691 17.84 61.1051 17.952C60.6571 18.064 60.2971 18.296 60.0251 18.648C60.3291 18.712 60.5931 18.872 60.8171 19.128C61.0411 19.384 61.1531 19.712 61.1531 20.112C61.1531 20.512 61.0251 20.832 60.7691 21.072C60.5131 21.296 60.1851 21.408 59.7851 21.408C59.3211 21.408 58.9771 21.264 58.7531 20.976C58.5451 20.672 58.4411 20.336 58.4411 19.968C58.4411 19.552 58.5451 19.216 58.7531 18.96C58.9611 18.704 59.2251 18.464 59.5451 18.24C59.9131 17.984 60.3851 17.768 60.9611 17.592C61.5531 17.4 62.2171 17.304 62.9531 17.304C63.6091 17.304 64.1691 17.384 64.6331 17.544C65.0971 17.688 65.4811 17.904 65.7851 18.192C66.2011 18.576 66.4731 19.048 66.6011 19.608C66.7291 20.152 66.7931 20.808 66.7931 21.576V28.248C66.7931 28.648 66.8491 28.936 66.9611 29.112C67.0891 29.288 67.2811 29.376 67.5371 29.376C67.7131 29.376 67.8811 29.336 68.0411 29.256C68.2011 29.176 68.3931 29.048 68.6171 28.872L68.8811 29.28C68.5451 29.536 68.2251 29.752 67.9211 29.928C67.6171 30.088 67.2091 30.168 66.6971 30.168C66.2331 30.168 65.8491 30.088 65.5451 29.928C65.2411 29.768 65.0091 29.536 64.8491 29.232C64.7051 28.912 64.6331 28.512 64.6331 28.032C64.2011 28.752 63.6811 29.288 63.0731 29.64C62.4811 29.992 61.8091 30.168 61.0571 30.168ZM61.9211 29.208C62.4491 29.208 62.9371 29.056 63.3851 28.752C63.8491 28.448 64.2651 27.992 64.6331 27.384V22.68C64.4411 22.952 64.1611 23.184 63.7931 23.376C63.4251 23.552 63.0251 23.736 62.5931 23.928C62.1611 24.104 61.7451 24.32 61.3451 24.576C60.9611 24.816 60.6411 25.136 60.3851 25.536C60.1291 25.936 60.0011 26.456 60.0011 27.096C60.0011 27.736 60.1691 28.248 60.5051 28.632C60.8571 29.016 61.3291 29.208 61.9211 29.208ZM80.5223 11.184V27.384C80.5223 28.104 80.6503 28.64 80.9062 28.992C81.1783 29.328 81.6583 29.496 82.3463 29.496V30C81.8503 29.952 81.3543 29.928 80.8583 29.928C80.3943 29.928 79.9463 29.952 79.5143 30C79.0983 30.048 78.7143 30.136 78.3623 30.264V14.064C78.3623 13.344 78.2343 12.816 77.9783 12.48C77.7223 12.128 77.2423 11.952 76.5383 11.952V11.448C77.0503 11.496 77.5463 11.52 78.0263 11.52C78.4903 11.52 78.9303 11.496 79.3463 11.448C79.7783 11.384 80.1703 11.296 80.5223 11.184ZM75.4823 17.304C76.1863 17.304 76.8423 17.472 77.4503 17.808C78.0743 18.144 78.4903 18.72 78.6983 19.536L78.3863 19.776C78.1623 19.104 77.8103 18.616 77.3303 18.312C76.8663 18.008 76.3143 17.856 75.6743 17.856C74.7303 17.856 73.9383 18.344 73.2983 19.32C72.6743 20.296 72.3703 21.8 72.3863 23.832C72.3863 25.128 72.5063 26.208 72.7463 27.072C73.0023 27.92 73.3703 28.56 73.8503 28.992C74.3463 29.408 74.9463 29.616 75.6503 29.616C76.3223 29.616 76.9303 29.328 77.4743 28.752C78.0183 28.176 78.3463 27.328 78.4583 26.208L78.7463 26.544C78.6183 27.76 78.2263 28.696 77.5703 29.352C76.9303 30.008 76.0583 30.336 74.9543 30.336C73.9623 30.336 73.0903 30.096 72.3383 29.616C71.6023 29.136 71.0343 28.416 70.6343 27.456C70.2503 26.496 70.0583 25.288 70.0583 23.832C70.0583 22.376 70.3063 21.168 70.8023 20.208C71.3143 19.232 71.9783 18.504 72.7943 18.024C73.6263 17.544 74.5223 17.304 75.4823 17.304ZM98.9316 13.008V13.488C98.3876 13.504 97.9716 13.584 97.6836 13.728C97.4116 13.872 97.2276 14.104 97.1316 14.424C97.0356 14.744 96.9876 15.2 96.9876 15.792V30.12C96.8916 30.12 96.7956 30.12 96.6996 30.12C96.6196 30.12 96.5316 30.12 96.4356 30.12L86.3556 14.544V27.216C86.3556 27.792 86.4036 28.248 86.4996 28.584C86.6116 28.904 86.8196 29.136 87.1236 29.28C87.4436 29.408 87.9156 29.488 88.5396 29.52V30C88.2516 29.968 87.8756 29.952 87.4116 29.952C86.9476 29.936 86.5076 29.928 86.0916 29.928C85.6916 29.928 85.2836 29.936 84.8676 29.952C84.4676 29.952 84.1316 29.968 83.8596 30V29.52C84.4036 29.488 84.8116 29.408 85.0836 29.28C85.3716 29.136 85.5636 28.904 85.6596 28.584C85.7556 28.248 85.8036 27.792 85.8036 27.216V15.552C85.8036 14.96 85.7556 14.528 85.6596 14.256C85.5636 13.968 85.3716 13.776 85.0836 13.68C84.8116 13.568 84.4036 13.504 83.8596 13.488V13.008C84.1316 13.024 84.4676 13.04 84.8676 13.056C85.2836 13.072 85.6916 13.08 86.0916 13.08C86.4436 13.08 86.7796 13.072 87.0996 13.056C87.4196 13.04 87.7076 13.024 87.9636 13.008L96.4356 26.064V15.792C96.4356 15.2 96.3796 14.744 96.2676 14.424C96.1716 14.104 95.9636 13.872 95.6436 13.728C95.3396 13.584 94.8756 13.504 94.2516 13.488V13.008C94.5396 13.024 94.9156 13.04 95.3796 13.056C95.8596 13.072 96.2996 13.08 96.6996 13.08C97.1156 13.08 97.5236 13.072 97.9236 13.056C98.3396 13.04 98.6756 13.024 98.9316 13.008ZM111.037 17.376V27.408C111.037 28.128 111.165 28.664 111.421 29.016C111.693 29.352 112.173 29.52 112.861 29.52V30.024C112.365 29.976 111.869 29.952 111.373 29.952C110.909 29.952 110.461 29.976 110.029 30.024C109.613 30.072 109.229 30.16 108.877 30.288V27.456C108.477 28.496 107.909 29.24 107.173 29.688C106.453 30.12 105.709 30.336 104.941 30.336C104.381 30.336 103.893 30.256 103.477 30.096C103.061 29.936 102.717 29.712 102.445 29.424C102.141 29.104 101.933 28.688 101.821 28.176C101.709 27.664 101.653 27.032 101.653 26.28V20.256C101.653 19.536 101.525 19.008 101.269 18.672C101.013 18.32 100.533 18.144 99.8293 18.144V17.64C100.341 17.688 100.837 17.712 101.317 17.712C101.781 17.712 102.221 17.688 102.637 17.64C103.069 17.576 103.461 17.488 103.813 17.376V26.808C103.813 27.304 103.845 27.76 103.909 28.176C103.973 28.592 104.133 28.928 104.389 29.184C104.645 29.44 105.061 29.568 105.637 29.568C106.261 29.568 106.813 29.376 107.293 28.992C107.789 28.608 108.173 28.088 108.445 27.432C108.733 26.776 108.877 26.04 108.877 25.224V20.256C108.877 19.536 108.749 19.008 108.493 18.672C108.237 18.32 107.757 18.144 107.053 18.144V17.64C107.565 17.688 108.061 17.712 108.541 17.712C109.005 17.712 109.445 17.688 109.861 17.64C110.293 17.576 110.685 17.488 111.037 17.376ZM118.479 17.64V18.144C118.175 18.144 117.919 18.216 117.711 18.36C117.503 18.504 117.479 18.704 117.639 18.96L124.047 28.296C124.319 28.696 124.559 28.984 124.767 29.16C124.975 29.32 125.231 29.432 125.535 29.496V30C125.375 29.984 125.127 29.968 124.791 29.952C124.471 29.92 124.151 29.904 123.831 29.904C123.335 29.904 122.799 29.92 122.223 29.952C121.663 29.968 121.255 29.984 120.999 30V29.496C121.319 29.496 121.583 29.424 121.791 29.28C121.999 29.12 122.015 28.92 121.839 28.68L115.431 19.344C115.111 18.88 114.855 18.576 114.663 18.432C114.471 18.272 114.231 18.176 113.943 18.144V17.64C114.103 17.656 114.351 17.68 114.687 17.712C115.023 17.728 115.343 17.736 115.647 17.736C116.159 17.736 116.695 17.728 117.255 17.712C117.815 17.68 118.223 17.656 118.479 17.64ZM119.127 23.736C119.127 23.736 119.143 23.792 119.175 23.904C119.207 24 119.239 24.104 119.271 24.216C119.319 24.328 119.343 24.384 119.343 24.384L117.351 26.976C116.935 27.52 116.711 27.976 116.679 28.344C116.663 28.712 116.815 28.992 117.135 29.184C117.455 29.36 117.895 29.472 118.455 29.52V30C118.183 29.984 117.879 29.976 117.543 29.976C117.207 29.96 116.879 29.952 116.559 29.952C116.255 29.936 115.975 29.928 115.719 29.928C115.351 29.928 115.015 29.936 114.711 29.952C114.423 29.952 114.151 29.968 113.895 30V29.52C114.199 29.488 114.511 29.352 114.831 29.112C115.167 28.856 115.559 28.432 116.007 27.84L119.127 23.736ZM125.055 17.64V18.12C124.751 18.152 124.415 18.312 124.047 18.6C123.695 18.872 123.327 19.272 122.943 19.8L120.183 23.616C120.183 23.616 120.167 23.568 120.135 23.472C120.103 23.36 120.071 23.256 120.039 23.16C120.007 23.048 119.991 22.992 119.991 22.992L121.863 20.376C122.215 19.88 122.439 19.472 122.535 19.152C122.631 18.832 122.575 18.592 122.367 18.432C122.175 18.256 121.791 18.152 121.215 18.12V17.64C121.631 17.656 121.975 17.672 122.247 17.688C122.535 17.704 122.863 17.712 123.231 17.712C123.599 17.712 123.927 17.704 124.215 17.688C124.519 17.672 124.799 17.656 125.055 17.64ZM130.396 13.656V17.664H133.948V18.144H130.396V27.432C130.396 28.184 130.532 28.712 130.804 29.016C131.076 29.32 131.452 29.472 131.932 29.472C132.412 29.472 132.828 29.28 133.18 28.896C133.532 28.496 133.836 27.832 134.092 26.904L134.572 27.024C134.412 27.952 134.092 28.736 133.612 29.376C133.148 30.016 132.428 30.336 131.452 30.336C130.908 30.336 130.46 30.264 130.108 30.12C129.756 29.992 129.444 29.8 129.172 29.544C128.82 29.176 128.572 28.736 128.428 28.224C128.3 27.712 128.236 27.032 128.236 26.184V18.144H125.932V17.664H128.236V13.992C128.636 13.976 129.02 13.944 129.388 13.896C129.756 13.848 130.092 13.768 130.396 13.656ZM140.464 12.744C141.264 12.744 141.872 12.84 142.288 13.032C142.704 13.208 143.072 13.408 143.392 13.632C143.584 13.744 143.736 13.832 143.848 13.896C143.976 13.944 144.096 13.968 144.208 13.968C144.368 13.968 144.48 13.88 144.544 13.704C144.624 13.528 144.688 13.264 144.736 12.912H145.288C145.272 13.184 145.248 13.512 145.216 13.896C145.2 14.264 145.184 14.76 145.168 15.384C145.168 15.992 145.168 16.8 145.168 17.808H144.616C144.568 17.04 144.4 16.304 144.112 15.6C143.824 14.896 143.4 14.32 142.84 13.872C142.296 13.424 141.576 13.2 140.68 13.2C139.832 13.2 139.128 13.456 138.568 13.968C138.024 14.48 137.752 15.152 137.752 15.984C137.752 16.704 137.936 17.312 138.304 17.808C138.672 18.288 139.16 18.728 139.768 19.128C140.392 19.512 141.064 19.928 141.784 20.376C142.616 20.888 143.352 21.4 143.992 21.912C144.648 22.408 145.16 22.96 145.528 23.568C145.912 24.176 146.104 24.912 146.104 25.776C146.104 26.8 145.872 27.648 145.408 28.32C144.944 28.992 144.328 29.496 143.56 29.832C142.792 30.168 141.944 30.336 141.016 30.336C140.168 30.336 139.496 30.24 139 30.048C138.504 29.856 138.08 29.656 137.728 29.448C137.376 29.224 137.104 29.112 136.912 29.112C136.752 29.112 136.632 29.2 136.552 29.376C136.488 29.552 136.432 29.816 136.384 30.168H135.832C135.864 29.832 135.88 29.44 135.88 28.992C135.896 28.528 135.904 27.928 135.904 27.192C135.92 26.456 135.928 25.528 135.928 24.408H136.48C136.544 25.368 136.72 26.264 137.008 27.096C137.312 27.928 137.768 28.6 138.376 29.112C139 29.608 139.824 29.856 140.848 29.856C141.376 29.856 141.872 29.752 142.336 29.544C142.816 29.32 143.208 28.976 143.512 28.512C143.816 28.032 143.968 27.416 143.968 26.664C143.968 26.008 143.808 25.44 143.488 24.96C143.184 24.464 142.752 24.008 142.192 23.592C141.632 23.16 140.976 22.72 140.224 22.272C139.472 21.808 138.768 21.336 138.112 20.856C137.456 20.376 136.928 19.824 136.528 19.2C136.144 18.56 135.952 17.792 135.952 16.896C135.952 15.952 136.16 15.176 136.576 14.568C137.008 13.944 137.568 13.488 138.256 13.2C138.944 12.896 139.68 12.744 140.464 12.744ZM151.745 11.208V20.184C152.161 19.096 152.737 18.344 153.473 17.928C154.225 17.512 155.009 17.304 155.825 17.304C156.433 17.304 156.937 17.384 157.337 17.544C157.753 17.704 158.097 17.928 158.369 18.216C158.673 18.536 158.889 18.936 159.017 19.416C159.145 19.896 159.209 20.544 159.209 21.36V27.768C159.209 28.44 159.345 28.896 159.617 29.136C159.905 29.376 160.377 29.496 161.033 29.496V30C160.761 29.984 160.345 29.968 159.785 29.952C159.225 29.92 158.681 29.904 158.153 29.904C157.625 29.904 157.105 29.92 156.593 29.952C156.097 29.968 155.721 29.984 155.465 30V29.496C156.041 29.496 156.449 29.376 156.689 29.136C156.929 28.896 157.049 28.44 157.049 27.768V20.832C157.049 20.336 157.009 19.88 156.929 19.464C156.849 19.048 156.665 18.712 156.377 18.456C156.105 18.2 155.681 18.072 155.105 18.072C154.449 18.072 153.865 18.256 153.353 18.624C152.857 18.992 152.465 19.504 152.177 20.16C151.889 20.816 151.745 21.568 151.745 22.416V27.768C151.745 28.44 151.865 28.896 152.105 29.136C152.345 29.376 152.753 29.496 153.329 29.496V30C153.073 29.984 152.689 29.968 152.177 29.952C151.681 29.92 151.169 29.904 150.641 29.904C150.113 29.904 149.569 29.92 149.009 29.952C148.449 29.968 148.033 29.984 147.761 30V29.496C148.417 29.496 148.881 29.376 149.153 29.136C149.441 28.896 149.585 28.44 149.585 27.768V14.088C149.585 13.368 149.457 12.84 149.201 12.504C148.945 12.152 148.465 11.976 147.761 11.976V11.472C148.273 11.52 148.769 11.544 149.249 11.544C149.713 11.544 150.153 11.52 150.569 11.472C151.001 11.408 151.393 11.32 151.745 11.208ZM167.967 17.304C168.991 17.304 169.911 17.528 170.727 17.976C171.543 18.424 172.191 19.128 172.671 20.088C173.167 21.048 173.415 22.296 173.415 23.832C173.415 25.368 173.167 26.616 172.671 27.576C172.191 28.52 171.543 29.216 170.727 29.664C169.911 30.112 168.991 30.336 167.967 30.336C166.959 30.336 166.039 30.112 165.207 29.664C164.391 29.216 163.735 28.52 163.239 27.576C162.759 26.616 162.519 25.368 162.519 23.832C162.519 22.296 162.759 21.048 163.239 20.088C163.735 19.128 164.391 18.424 165.207 17.976C166.039 17.528 166.959 17.304 167.967 17.304ZM167.967 17.784C167.055 17.784 166.303 18.256 165.711 19.2C165.135 20.144 164.847 21.688 164.847 23.832C164.847 25.976 165.135 27.52 165.711 28.464C166.303 29.392 167.055 29.856 167.967 29.856C168.879 29.856 169.623 29.392 170.199 28.464C170.791 27.52 171.087 25.976 171.087 23.832C171.087 21.688 170.791 20.144 170.199 19.2C169.623 18.256 168.879 17.784 167.967 17.784ZM179.051 17.376V32.112C179.051 32.8 179.251 33.256 179.651 33.48C180.067 33.72 180.635 33.84 181.355 33.84V34.344C181.003 34.328 180.515 34.304 179.891 34.272C179.267 34.256 178.603 34.248 177.899 34.248C177.403 34.248 176.907 34.256 176.411 34.272C175.931 34.304 175.563 34.328 175.307 34.344V33.84C175.883 33.84 176.291 33.736 176.531 33.528C176.771 33.32 176.891 32.928 176.891 32.352V20.256C176.891 19.536 176.763 19.008 176.507 18.672C176.251 18.32 175.771 18.144 175.067 18.144V17.64C175.579 17.688 176.075 17.712 176.555 17.712C177.019 17.712 177.459 17.688 177.875 17.64C178.307 17.576 178.699 17.488 179.051 17.376ZM182.891 17.304C183.739 17.304 184.499 17.536 185.171 18C185.843 18.448 186.371 19.112 186.755 19.992C187.155 20.872 187.355 21.96 187.355 23.256C187.355 24.12 187.251 24.976 187.043 25.824C186.835 26.656 186.507 27.416 186.059 28.104C185.627 28.776 185.059 29.32 184.355 29.736C183.667 30.136 182.835 30.336 181.859 30.336C181.107 30.336 180.451 30.16 179.891 29.808C179.347 29.456 178.979 29.032 178.787 28.536L179.027 28.2C179.251 28.648 179.571 29.024 179.987 29.328C180.419 29.632 180.955 29.784 181.595 29.784C182.491 29.784 183.187 29.504 183.683 28.944C184.179 28.384 184.523 27.64 184.715 26.712C184.923 25.768 185.027 24.728 185.027 23.592C185.027 22.312 184.923 21.264 184.715 20.448C184.507 19.632 184.195 19.024 183.779 18.624C183.363 18.224 182.851 18.024 182.243 18.024C181.459 18.024 180.747 18.352 180.107 19.008C179.467 19.648 179.059 20.624 178.883 21.936L178.595 21.6C178.771 20.24 179.251 19.184 180.035 18.432C180.835 17.68 181.787 17.304 182.891 17.304Z" fill="#1E1E1E"/>
</svg>
