<svg data-v-a2a6c63c="" data-v-da47610f="" xmlns="http://www.w3.org/2000/svg" width="125" height="30" fill="none" class="image"><g clip-path="url(#a)"><path fill="transparent" d="M0 0h125v30H0z"></path><path fill="#8F8F8F" d="M35.577 23V9.7h2.546l5.662 9.386h-1.349L48.003 9.7h2.527l.038 13.3H47.68l-.019-8.873h.532l-4.446 7.467H42.36l-4.541-7.467h.646V23zm17.938 0V12.778h2.963V23zm1.481-11.647q-.816 0-1.33-.475a1.54 1.54 0 0 1-.512-1.178q0-.703.512-1.178.514-.475 1.33-.475t1.33.456q.514.436.514 1.14 0 .741-.514 1.235-.493.475-1.33.475m10.446 1.273q1.217 0 2.166.494.97.475 1.52 1.482.551.988.551 2.546V23h-2.964v-5.396q0-1.235-.55-1.824-.533-.59-1.52-.589-.705 0-1.274.304-.55.285-.874.893-.303.608-.304 1.558V23H59.23V12.778h2.831v2.831l-.532-.855a3.8 3.8 0 0 1 1.577-1.577q1.026-.55 2.337-.551M72.366 23V12.778h2.964V23zm1.482-11.647q-.817 0-1.33-.475a1.54 1.54 0 0 1-.513-1.178q0-.703.513-1.178t1.33-.475 1.33.456q.513.436.513 1.14 0 .741-.513 1.235-.495.475-1.33.475m7.672 11.799a10.4 10.4 0 0 1-2.527-.304q-1.197-.322-1.9-.798l.988-2.128q.704.437 1.653.722a7.2 7.2 0 0 0 1.9.266q1.026 0 1.444-.247.437-.247.437-.684 0-.36-.342-.532-.323-.19-.874-.285a43 43 0 0 0-1.216-.19 17 17 0 0 1-1.311-.247 4.7 4.7 0 0 1-1.216-.494 2.56 2.56 0 0 1-.893-.874q-.323-.55-.323-1.425 0-.969.55-1.71.57-.74 1.635-1.159 1.065-.437 2.546-.437 1.045 0 2.128.228t1.805.665l-.988 2.109a4.8 4.8 0 0 0-1.501-.589 6.4 6.4 0 0 0-1.444-.171q-.988 0-1.444.266-.456.265-.456.684a.62.62 0 0 0 .323.57q.342.19.893.304t1.197.209q.665.075 1.33.247.664.171 1.197.494.55.305.893.855.342.532.342 1.406a2.7 2.7 0 0 1-.57 1.691q-.57.722-1.653 1.14-1.064.418-2.603.418m12.868-10.526q1.215 0 2.166.494.968.475 1.52 1.482.55.988.55 2.546V23h-2.963v-5.396q0-1.235-.551-1.824-.533-.59-1.52-.589-.703 0-1.273.304-.552.285-.874.893-.304.608-.304 1.558V23h-2.964V8.902h2.964v6.707l-.665-.855a3.8 3.8 0 0 1 1.577-1.577q1.026-.55 2.337-.551m11.862 10.526q-1.635 0-2.907-.684a5.3 5.3 0 0 1-1.995-1.862q-.722-1.197-.722-2.717 0-1.54.722-2.717a5.13 5.13 0 0 1 1.995-1.862q1.272-.684 2.907-.684 1.614 0 2.888.684a5 5 0 0 1 1.995 1.843q.722 1.178.722 2.736 0 1.52-.722 2.717a5.15 5.15 0 0 1-1.995 1.862q-1.274.684-2.888.684m0-2.432a2.6 2.6 0 0 0 1.33-.342q.588-.342.931-.969.342-.645.342-1.52 0-.893-.342-1.52a2.46 2.46 0 0 0-.931-.969 2.6 2.6 0 0 0-1.33-.342q-.742 0-1.33.342-.59.342-.95.969-.342.627-.342 1.52 0 .875.342 1.52.36.627.95.969.588.342 1.33.342m13.628 2.432q-1.293 0-2.261-.57-.97-.57-1.52-1.729-.532-1.177-.532-2.964 0-1.805.513-2.964t1.482-1.729 2.318-.57q1.444 0 2.584.665a4.7 4.7 0 0 1 1.824 1.824q.684 1.178.684 2.774 0 1.616-.684 2.793a4.7 4.7 0 0 1-1.824 1.824q-1.14.645-2.584.646m-6.042 3.534V12.778h2.831v2.09l-.057 3.04.19 3.021v5.757zm5.529-5.966q.741 0 1.311-.342.588-.342.931-.969.36-.645.361-1.52 0-.893-.361-1.52a2.46 2.46 0 0 0-.931-.969 2.5 2.5 0 0 0-1.311-.342q-.742 0-1.33.342a2.45 2.45 0 0 0-.931.969q-.342.627-.342 1.52 0 .875.342 1.52.342.627.931.969.588.342 1.33.342"></path><circle cx="15" cy="15" r="15" fill="#EBEBEB"></circle><g clip-path="url(#b)"><path fill="#41B883" d="M21 8h4L15 24.985 5 8h7.65L15 11.938 17.3 8z"></path><path fill="#41B883" d="m5 8 10 16.985L25 8h-4l-6 10.19L8.95 8z"></path><path fill="#35495E" d="M8.95 8 15 18.24 21 8h-3.7L15 11.938 12.65 8z"></path></g></g><defs><clipPath id="a"><path fill="transparent" d="M0 0h125v30H0z"></path></clipPath><clipPath id="b"><path fill="transparent" d="M5 8h20v17H5z"></path></clipPath></defs></svg>